<svg width="19" height="27" viewBox="0 0 19 27" fill="none" xmlns="http://www.w3.org/2000/svg">
<path d="M0.597656 18.4727C0.597656 19.3867 0.769531 20.1797 1.11328 20.8516C1.45703 21.5156 1.96875 22.0508 2.64844 22.457C2.98438 22.6523 3.25781 22.8711 3.46875 23.1133C3.67969 23.3633 3.84766 23.6758 3.97266 24.0508L4.48828 25.4922C4.75391 26.2734 5.32422 26.6641 6.19922 26.6641H11.7305C12.6055 26.6641 13.1719 26.2734 13.4297 25.4922L13.957 24.0508C14.082 23.6758 14.25 23.3633 14.4609 23.1133C14.6719 22.8711 14.9453 22.6523 15.2812 22.457C15.9609 22.0508 16.4727 21.5156 16.8164 20.8516C17.1602 20.1875 17.332 19.3945 17.332 18.4727V8.60547C17.332 7.69141 17.1602 6.90234 16.8164 6.23828C16.4727 5.57422 15.9609 5.03906 15.2812 4.63281C14.9453 4.4375 14.6719 4.21875 14.4609 3.97656C14.25 3.72656 14.082 3.41406 13.957 3.03906L13.4297 1.58594C13.1797 0.804687 12.6133 0.414062 11.7305 0.414062H6.19922C5.32422 0.414062 4.75391 0.804687 4.48828 1.58594L3.97266 3.03906C3.84766 3.41406 3.67578 3.73047 3.45703 3.98828C3.24609 4.23828 2.97656 4.45312 2.64844 4.63281C1.97656 5.02344 1.46484 5.55469 1.11328 6.22656C0.769531 6.89062 0.597656 7.68359 0.597656 8.60547V18.4727ZM2.88281 18.0156V9.07422C2.88281 8.23047 3.10938 7.57031 3.5625 7.09375C4.02344 6.61719 4.66406 6.37891 5.48438 6.37891H12.4453C13.2734 6.37891 13.9141 6.61719 14.3672 7.09375C14.8281 7.57031 15.0586 8.23047 15.0586 9.07422V18.0156C15.0586 18.8594 14.8281 19.5195 14.3672 19.9961C13.9141 20.4648 13.2734 20.6992 12.4453 20.6992H5.48438C4.66406 20.6992 4.02344 20.4648 3.5625 19.9961C3.10938 19.5195 2.88281 18.8594 2.88281 18.0156ZM16.8516 12.7891H17.3906C17.7422 12.7891 18.0273 12.6758 18.2461 12.4492C18.4648 12.2227 18.5742 11.918 18.5742 11.5352V9.91797C18.5742 9.54297 18.4648 9.24219 18.2461 9.01562C18.0273 8.78906 17.7422 8.67578 17.3906 8.67578H16.8516V12.7891Z" fill="white"/>
</svg>
