<svg width="24" height="25" viewBox="0 0 24 25" fill="none" xmlns="http://www.w3.org/2000/svg">
<path d="M6.75 9.98438C6.74219 9.53906 6.89062 9.13672 7.19531 8.77734C7.50781 8.41797 7.89453 8.22656 8.35547 8.20312C8.38672 8.48438 8.33203 8.76953 8.19141 9.05859C8.05078 9.34766 7.85156 9.58203 7.59375 9.76172C7.34375 9.94141 7.0625 10.0156 6.75 9.98438ZM9.98438 14.0391C9.89844 14.3281 9.75781 14.6406 9.5625 14.9766C9.375 15.3047 9.15625 15.5938 8.90625 15.8438C8.82031 15.9062 8.71875 15.9648 8.60156 16.0195C8.49219 16.0664 8.36328 16.0898 8.21484 16.0898C8.08203 16.0898 7.96875 16.0703 7.875 16.0312C7.78125 15.9844 7.67188 15.9453 7.54688 15.9141C7.46875 15.8906 7.37891 15.8594 7.27734 15.8203C7.17578 15.7812 7.0625 15.7617 6.9375 15.7617C6.64844 15.7617 6.41797 15.8203 6.24609 15.9375C6.07422 16.0547 5.86719 16.1133 5.625 16.1133C5.35156 16.1133 5.03906 15.9141 4.6875 15.5156C4.35156 15.1484 4.08203 14.6953 3.87891 14.1562C3.67578 13.6094 3.57422 13.0781 3.57422 12.5625C3.57422 12.2578 3.61719 11.9609 3.70312 11.6719C3.78906 11.375 3.92578 11.1055 4.11328 10.8633C4.46484 10.4102 4.95312 10.1836 5.57812 10.1836C5.86719 10.1836 6.10547 10.2461 6.29297 10.3711C6.48047 10.4883 6.64844 10.5469 6.79688 10.5469C6.97656 10.5469 7.17969 10.4844 7.40625 10.3594C7.63281 10.2344 7.92188 10.1719 8.27344 10.1719C8.9375 10.1719 9.44141 10.4219 9.78516 10.9219C9.55859 11.0625 9.39453 11.2109 9.29297 11.3672C9.19141 11.5156 9.11719 11.6562 9.07031 11.7891C8.99219 11.9844 8.94922 12.1953 8.94141 12.4219C8.93359 12.6484 8.97656 12.8789 9.07031 13.1133C9.15625 13.3242 9.27344 13.5039 9.42188 13.6523C9.57031 13.8008 9.75781 13.9297 9.98438 14.0391ZM13.1719 8.78906V10.1719H14.3086V11.0977H13.1719V14.3555C13.1719 14.8477 13.4102 15.0938 13.8867 15.0938C13.9492 15.0938 14.0234 15.0938 14.1094 15.0938C14.1953 15.0859 14.25 15.0742 14.2734 15.0586V16.043C14.2266 16.0508 14.1406 16.0625 14.0156 16.0781C13.8906 16.0859 13.7578 16.0898 13.6172 16.0898C13.0234 16.0898 12.5977 15.9727 12.3398 15.7383C12.0898 15.4961 11.9648 15.082 11.9648 14.4961V11.0977H11.1211V10.1719H11.9648V8.78906H13.1719ZM18.2812 16.043H17.0039L14.8477 10.1719H16.1367L17.6484 14.8828L19.0781 10.1719H20.3906L18.2812 16.043ZM6.64453 24.4453H17.3438C18.4609 24.4453 19.4375 24.3477 20.2734 24.1523C21.1172 23.9648 21.8438 23.5664 22.4531 22.957C23.0547 22.3477 23.4492 21.6289 23.6367 20.8008C23.8242 19.9648 23.918 18.9883 23.918 17.8711V7.24219C23.918 6.11719 23.8242 5.13672 23.6367 4.30078C23.4492 3.46484 23.0547 2.74609 22.4531 2.14453C21.8438 1.54297 21.1172 1.14844 20.2734 0.960938C19.4375 0.765625 18.4609 0.667969 17.3438 0.667969H6.63281C5.53125 0.667969 4.55859 0.765625 3.71484 0.960938C2.87891 1.14844 2.15625 1.54297 1.54688 2.14453C0.945312 2.75391 0.550781 3.47656 0.363281 4.3125C0.175781 5.14062 0.0820312 6.10938 0.0820312 7.21875V17.8711C0.0820312 18.9883 0.171875 19.9648 0.351562 20.8008C0.539062 21.6367 0.9375 22.3555 1.54688 22.957C2.15625 23.5664 2.87891 23.9648 3.71484 24.1523C4.55859 24.3477 5.53516 24.4453 6.64453 24.4453Z" fill="white"/>
</svg>
