<svg width="32" height="21" viewBox="0 0 32 21" fill="none" xmlns="http://www.w3.org/2000/svg">
<path d="M1.79688 20.8516H2.54688C2.85938 20.8516 3.11328 20.7539 3.30859 20.5586C3.50391 20.3711 3.60156 20.1172 3.60156 19.7969V18.1328C3.67188 18.1562 3.79297 18.1758 3.96484 18.1914C4.14453 18.1992 4.3125 18.2031 4.46875 18.2031H27.5195C27.6758 18.2031 27.8438 18.1992 28.0234 18.1914C28.2031 18.1758 28.3242 18.1562 28.3867 18.1328V19.7969C28.3867 20.1172 28.4844 20.3711 28.6797 20.5586C28.875 20.7539 29.1289 20.8516 29.4414 20.8516H30.1914C30.5117 20.8516 30.7656 20.7539 30.9531 20.5586C31.1484 20.3711 31.2461 20.1172 31.2461 19.7969V11.4766C31.2461 10.2891 30.9297 9.38281 30.2969 8.75781C29.6641 8.125 28.7461 7.80859 27.543 7.80859H4.44531C3.24219 7.80859 2.32422 8.125 1.69141 8.75781C1.05859 9.38281 0.742188 10.2891 0.742188 11.4766V19.7969C0.742188 20.1172 0.835938 20.3711 1.02344 20.5586C1.21875 20.7539 1.47656 20.8516 1.79688 20.8516ZM3.61328 16.0234C3.31641 16.0234 3.16797 15.8633 3.16797 15.543V11.3945C3.16797 10.9727 3.29688 10.6328 3.55469 10.375C3.82031 10.1172 4.16797 9.98828 4.59766 9.98828H27.3906C27.8203 9.98828 28.1641 10.1172 28.4219 10.375C28.6797 10.6328 28.8086 10.9727 28.8086 11.3945V15.543C28.8086 15.8633 28.6641 16.0234 28.375 16.0234H3.61328ZM3.76562 8.30078H6.96484V5.66406C6.96484 5.09375 7.11719 4.65625 7.42188 4.35156C7.73438 4.04688 8.18359 3.89453 8.76953 3.89453H13.0352C13.6133 3.89453 14.0547 4.04688 14.3594 4.35156C14.6719 4.65625 14.8281 5.09375 14.8281 5.66406V8.30078H17.1484V5.66406C17.1484 5.09375 17.3008 4.65625 17.6055 4.35156C17.918 4.04688 18.3672 3.89453 18.9531 3.89453H23.2188C23.8047 3.89453 24.25 4.04688 24.5547 4.35156C24.8672 4.65625 25.0234 5.09375 25.0234 5.66406V8.30078H28.2227V3.66016C28.2227 2.52734 27.9258 1.67188 27.332 1.09375C26.7383 0.515625 25.8828 0.226562 24.7656 0.226562H7.21094C6.10156 0.226562 5.25 0.515625 4.65625 1.09375C4.0625 1.67188 3.76562 2.52734 3.76562 3.66016V8.30078Z" fill="white"/>
</svg>
