<svg width="28" height="25" viewBox="0 0 28 25" fill="none" xmlns="http://www.w3.org/2000/svg">
<path d="M0.804688 2.625C0.804688 3.07031 0.914062 3.47656 1.13281 3.84375C1.35156 4.21094 1.64453 4.50781 2.01172 4.73438C2.37891 4.95312 2.78516 5.0625 3.23047 5.0625C3.68359 5.0625 4.09375 4.95312 4.46094 4.73438C4.82812 4.50781 5.12109 4.21094 5.33984 3.84375C5.55859 3.47656 5.66797 3.07031 5.66797 2.625C5.66797 2.17188 5.55859 1.76172 5.33984 1.39453C5.12109 1.02734 4.82812 0.738281 4.46094 0.527344C4.09375 0.308594 3.68359 0.199219 3.23047 0.199219C2.78516 0.199219 2.37891 0.308594 2.01172 0.527344C1.64453 0.738281 1.35156 1.02734 1.13281 1.39453C0.914062 1.76172 0.804688 2.17188 0.804688 2.625ZM2.33984 6.92578C2.33984 7.16797 2.42578 7.37891 2.59766 7.55859C2.77734 7.73828 2.98828 7.82812 3.23047 7.82812C3.48828 7.82812 3.70312 7.73828 3.875 7.55859C4.04688 7.37891 4.13281 7.16797 4.13281 6.92578C4.13281 6.67578 4.04688 6.46484 3.875 6.29297C3.70312 6.11328 3.48828 6.02344 3.23047 6.02344C2.98047 6.02344 2.76953 6.11328 2.59766 6.29297C2.42578 6.46484 2.33984 6.67578 2.33984 6.92578ZM2.33984 9.69141C2.33984 9.92578 2.42578 10.1328 2.59766 10.3125C2.77734 10.4922 2.98828 10.582 3.23047 10.582C3.48828 10.582 3.70312 10.4922 3.875 10.3125C4.04688 10.1328 4.13281 9.92578 4.13281 9.69141C4.13281 9.43359 4.04688 9.21875 3.875 9.04688C3.70312 8.875 3.48828 8.78906 3.23047 8.78906C2.98047 8.78906 2.76953 8.875 2.59766 9.04688C2.42578 9.21875 2.33984 9.43359 2.33984 9.69141ZM2.19922 15.2109C2.19922 15.5 2.30078 15.7461 2.50391 15.9492C2.70703 16.1523 2.94922 16.2539 3.23047 16.2539C3.51953 16.2539 3.76562 16.1523 3.96875 15.9492C4.17188 15.7461 4.27344 15.5 4.27344 15.2109V12.5859C4.27344 12.3047 4.17188 12.0625 3.96875 11.8594C3.76562 11.6484 3.51953 11.543 3.23047 11.543C2.94922 11.543 2.70703 11.6484 2.50391 11.8594C2.30078 12.0625 2.19922 12.3047 2.19922 12.5859V15.2109ZM9.59375 24.9141H24.7461C25.1914 24.9141 25.5977 24.8047 25.9648 24.5859C26.332 24.3672 26.625 24.0703 26.8438 23.6953C27.0703 23.3281 27.1836 22.9219 27.1836 22.4766V2.625C27.1836 2.17188 27.0703 1.76172 26.8438 1.39453C26.625 1.02734 26.332 0.738281 25.9648 0.527344C25.5977 0.308594 25.1914 0.199219 24.7461 0.199219H6.3125C6.59375 0.496094 6.80469 0.847656 6.94531 1.25391C7.08594 1.66016 7.15625 2.11719 7.15625 2.625V22.4766C7.15625 22.9219 7.26562 23.3281 7.48438 23.6953C7.70312 24.0703 7.99609 24.3672 8.36328 24.5859C8.73828 24.8047 9.14844 24.9141 9.59375 24.9141Z" fill="white"/>
</svg>
