<svg width="26" height="25" viewBox="0 0 26 25" fill="none" xmlns="http://www.w3.org/2000/svg">
<path d="M5.76953 5.0625H23.3125C23.75 5.0625 24.1523 4.95312 24.5195 4.73438C24.8945 4.50781 25.1914 4.21094 25.4102 3.84375C25.6289 3.47656 25.7383 3.07031 25.7383 2.625C25.7383 2.17188 25.6289 1.76172 25.4102 1.39453C25.1914 1.02734 24.8945 0.738281 24.5195 0.527344C24.1523 0.308594 23.75 0.199219 23.3125 0.199219H5.76953C6.03516 0.527344 6.24219 0.898438 6.39062 1.3125C6.53906 1.72656 6.61328 2.16406 6.61328 2.625C6.61328 3.08594 6.53906 3.52344 6.39062 3.9375C6.24219 4.35156 6.03516 4.72656 5.76953 5.0625ZM2.6875 5.0625C3.14062 5.0625 3.55078 4.95312 3.91797 4.73438C4.28516 4.50781 4.57812 4.21094 4.79688 3.84375C5.01562 3.47656 5.125 3.07031 5.125 2.625C5.125 2.17188 5.01562 1.76172 4.79688 1.39453C4.57812 1.02734 4.28516 0.738281 3.91797 0.527344C3.55078 0.308594 3.14062 0.199219 2.6875 0.199219C2.24219 0.199219 1.83594 0.308594 1.46875 0.527344C1.10156 0.738281 0.808594 1.02734 0.589844 1.39453C0.371094 1.76172 0.261719 2.17188 0.261719 2.625C0.261719 3.07031 0.371094 3.47656 0.589844 3.84375C0.808594 4.21094 1.10156 4.50781 1.46875 4.73438C1.83594 4.95312 2.24219 5.0625 2.6875 5.0625ZM2.6875 7.875C2.94531 7.875 3.16016 7.78906 3.33203 7.61719C3.50391 7.4375 3.58984 7.22656 3.58984 6.98438C3.58984 6.73438 3.50391 6.52344 3.33203 6.35156C3.16016 6.17188 2.94531 6.08203 2.6875 6.08203C2.4375 6.08203 2.22656 6.17188 2.05469 6.35156C1.88281 6.52344 1.79688 6.73438 1.79688 6.98438C1.79688 7.22656 1.88281 7.4375 2.05469 7.61719C2.23438 7.78906 2.44531 7.875 2.6875 7.875ZM2.6875 10.6992C2.94531 10.6992 3.16016 10.6133 3.33203 10.4414C3.50391 10.2617 3.58984 10.0508 3.58984 9.80859C3.58984 9.55859 3.50391 9.34766 3.33203 9.17578C3.16016 9.00391 2.94531 8.91797 2.6875 8.91797C2.4375 8.91797 2.22656 9.00391 2.05469 9.17578C1.88281 9.34766 1.79688 9.55859 1.79688 9.80859C1.79688 10.0508 1.88281 10.2617 2.05469 10.4414C2.23438 10.6133 2.44531 10.6992 2.6875 10.6992ZM2.6875 13.5234C2.94531 13.5234 3.16016 13.4336 3.33203 13.2539C3.50391 13.0742 3.58984 12.8672 3.58984 12.6328C3.58984 12.3828 3.50391 12.1719 3.33203 12C3.16016 11.8203 2.94531 11.7305 2.6875 11.7305C2.4375 11.7305 2.22656 11.8203 2.05469 12C1.88281 12.1719 1.79688 12.3828 1.79688 12.6328C1.79688 12.8672 1.88281 13.0742 2.05469 13.2539C2.23438 13.4336 2.44531 13.5234 2.6875 13.5234ZM2.6875 16.3477C2.94531 16.3477 3.16016 16.2617 3.33203 16.0898C3.50391 15.9102 3.58984 15.6992 3.58984 15.457C3.58984 15.207 3.50391 14.9961 3.33203 14.8242C3.16016 14.6445 2.94531 14.5547 2.6875 14.5547C2.4375 14.5547 2.22656 14.6445 2.05469 14.8242C1.88281 14.9961 1.79688 15.207 1.79688 15.457C1.79688 15.6992 1.88281 15.9102 2.05469 16.0898C2.23438 16.2617 2.44531 16.3477 2.6875 16.3477ZM2.6875 19.1719C2.94531 19.1719 3.16016 19.0859 3.33203 18.9141C3.50391 18.7344 3.58984 18.5195 3.58984 18.2695C3.58984 18.0195 3.50391 17.8086 3.33203 17.6367C3.16016 17.4648 2.94531 17.3789 2.6875 17.3789C2.4375 17.3789 2.22656 17.4648 2.05469 17.6367C1.88281 17.8086 1.79688 18.0195 1.79688 18.2695C1.79688 18.5195 1.88281 18.7344 2.05469 18.9141C2.23438 19.0859 2.44531 19.1719 2.6875 19.1719ZM2.6875 24.9141C2.97656 24.9141 3.22266 24.8125 3.42578 24.6094C3.62891 24.4062 3.73047 24.1602 3.73047 23.8711V21.2344C3.73047 20.9531 3.62891 20.7109 3.42578 20.5078C3.22266 20.3047 2.97656 20.2031 2.6875 20.2031C2.40625 20.2031 2.16406 20.3047 1.96094 20.5078C1.75781 20.7109 1.65625 20.9531 1.65625 21.2344V23.8711C1.65625 24.1602 1.75781 24.4062 1.96094 24.6094C2.16406 24.8125 2.40625 24.9141 2.6875 24.9141Z" fill="white"/>
</svg>
