<svg width="26" height="27" viewBox="0 0 26 27" fill="none" xmlns="http://www.w3.org/2000/svg">
<path d="M13 26.3828C15.4453 26.3828 17.582 26.1133 19.4102 25.5742C21.2383 25.043 22.6562 24.2891 23.6641 23.3125C24.6797 22.3359 25.1875 21.1875 25.1875 19.8672V7.66797C25.1875 6.25391 24.6797 5.02344 23.6641 3.97656C22.6484 2.92969 21.2266 2.12109 19.3984 1.55078C17.5703 0.980469 15.4375 0.695312 13 0.695312C10.5547 0.695312 8.41797 0.980469 6.58984 1.55078C4.76172 2.12109 3.33984 2.92969 2.32422 3.97656C1.31641 5.02344 0.8125 6.25391 0.8125 7.66797V19.8672C0.8125 21.1875 1.31641 22.3359 2.32422 23.3125C3.33984 24.2891 4.75781 25.043 6.57812 25.5742C8.40625 26.1133 10.5469 26.3828 13 26.3828ZM3.23828 19.8672C3.23828 19.0859 3.65234 18.3867 4.48047 17.7695C5.30859 17.1523 6.45312 16.668 7.91406 16.3164C9.38281 15.9648 11.0781 15.7891 13 15.7891C14.9219 15.7891 16.6133 15.9648 18.0742 16.3164C19.543 16.668 20.6914 17.1523 21.5195 17.7695C22.3477 18.3867 22.7617 19.0859 22.7617 19.8672C22.7617 20.6484 22.3477 21.3477 21.5195 21.9648C20.6914 22.582 19.543 23.0664 18.0742 23.418C16.6133 23.7695 14.9219 23.9453 13 23.9453C11.0781 23.9453 9.38281 23.7695 7.91406 23.418C6.45312 23.0664 5.30859 22.582 4.48047 21.9648C3.65234 21.3477 3.23828 20.6484 3.23828 19.8672ZM8.06641 17.4883C8.13672 18.0508 8.39844 18.5625 8.85156 19.0234C9.3125 19.4766 9.90234 19.8398 10.6211 20.1133C11.3398 20.3867 12.1328 20.5234 13 20.5234C13.8672 20.5234 14.6602 20.3867 15.3789 20.1133C16.0977 19.8398 16.6836 19.4766 17.1367 19.0234C17.5977 18.5625 17.8633 18.0508 17.9336 17.4883C17.2461 17.3164 16.4805 17.1836 15.6367 17.0898C14.8008 16.9883 13.9219 16.9375 13 16.9375C12.0703 16.9375 11.1875 16.9883 10.3516 17.0898C9.51562 17.1836 8.75391 17.3164 8.06641 17.4883Z" fill="white"/>
</svg>
