<svg width="34" height="21" viewBox="0 0 34 21" fill="none" xmlns="http://www.w3.org/2000/svg">
<path d="M16.9766 20.9922C19.4922 20.9922 21.7891 20.7227 23.8672 20.1836C25.9453 19.6445 27.7383 18.8945 29.2461 17.9336C30.7539 16.9727 31.918 15.8633 32.7383 14.6055C33.5664 13.3398 33.9805 11.9844 33.9805 10.5391C33.9805 9.09375 33.5664 7.73828 32.7383 6.47266C31.918 5.20703 30.7539 4.09766 29.2461 3.14453C27.7383 2.18359 25.9453 1.43359 23.8672 0.894531C21.7891 0.347656 19.4922 0.0742188 16.9766 0.0742188C14.4688 0.0742188 12.1758 0.347656 10.0977 0.894531C8.02734 1.43359 6.23828 2.18359 4.73047 3.14453C3.23047 4.09766 2.07031 5.20703 1.25 6.47266C0.429688 7.73828 0.0195312 9.09375 0.0195312 10.5391C0.0195312 11.9844 0.429688 13.3398 1.25 14.6055C2.07031 15.8633 3.23047 16.9727 4.73047 17.9336C6.23828 18.8945 8.02734 19.6445 10.0977 20.1836C12.1758 20.7227 14.4688 20.9922 16.9766 20.9922ZM16.9766 16.9844C15.4062 16.9844 13.957 16.832 12.6289 16.5273C11.3086 16.2148 10.1562 15.7812 9.17188 15.2266C8.19531 14.6641 7.4375 14.0078 6.89844 13.2578C6.35938 12.5078 6.08984 11.6953 6.08984 10.8203C6.08984 9.94531 6.35938 9.13672 6.89844 8.39453C7.4375 7.64453 8.19531 6.99219 9.17188 6.4375C10.1562 5.88281 11.3086 5.45312 12.6289 5.14844C13.957 4.83594 15.4062 4.67969 16.9766 4.67969C18.5547 4.67969 20.0078 4.83594 21.3359 5.14844C22.6719 5.45312 23.832 5.88281 24.8164 6.4375C25.8008 6.99219 26.5625 7.64453 27.1016 8.39453C27.6406 9.13672 27.9102 9.94531 27.9102 10.8203C27.9102 11.6953 27.6367 12.5078 27.0898 13.2578C26.5508 14.0078 25.7891 14.6641 24.8047 15.2266C23.8281 15.7812 22.6719 16.2148 21.3359 16.5273C20.0078 16.832 18.5547 16.9844 16.9766 16.9844ZM16.9766 11.5234C18.1797 11.5234 19.3047 11.3633 20.3516 11.043C21.3984 10.7227 22.3125 10.2773 23.0938 9.70703C23.875 9.13672 24.4727 8.48047 24.8867 7.73828C24.0508 7.15234 22.9609 6.6875 21.6172 6.34375C20.2812 6 18.7344 5.82812 16.9766 5.82812C15.2266 5.82812 13.6797 6.00391 12.3359 6.35547C10.9922 6.69922 9.90234 7.17188 9.06641 7.77344C9.48828 8.50781 10.0898 9.16016 10.8711 9.73047C11.6523 10.293 12.5625 10.7344 13.6016 11.0547C14.6484 11.3672 15.7734 11.5234 16.9766 11.5234Z" fill="white"/>
</svg>
