<svg width="18" height="29" viewBox="0 0 18 29" fill="none" xmlns="http://www.w3.org/2000/svg">
<path d="M5.20312 24.8516H12.7969C13.0234 24.8516 13.2148 24.7695 13.3711 24.6055C13.5273 24.4492 13.6055 24.2617 13.6055 24.043C13.6055 23.8242 13.5273 23.6367 13.3711 23.4805C13.2148 23.3242 13.0234 23.2461 12.7969 23.2461H5.20312C4.97656 23.2461 4.78516 23.3242 4.62891 23.4805C4.47266 23.6367 4.39453 23.8242 4.39453 24.043C4.39453 24.2617 4.47266 24.4492 4.62891 24.6055C4.78516 24.7695 4.97656 24.8516 5.20312 24.8516ZM9 28.3906C9.9375 28.3906 10.7383 28.1797 11.4023 27.7578C12.0664 27.3438 12.4297 26.793 12.4922 26.1055H5.49609C5.54297 26.793 5.90234 27.3438 6.57422 27.7578C7.24609 28.1797 8.05469 28.3906 9 28.3906ZM4.20703 20.9492C4.22266 21.2695 4.32812 21.5234 4.52344 21.7109C4.72656 21.8984 4.99609 21.9922 5.33203 21.9922H12.668C13.0039 21.9922 13.2734 21.8984 13.4766 21.7109C13.6797 21.5234 13.7891 21.2695 13.8047 20.9492C13.8594 19.793 13.9688 18.7734 14.1328 17.8906C14.2969 17 14.4883 16.207 14.707 15.5117C14.9336 14.8164 15.168 14.1836 15.4102 13.6133C15.6523 13.043 15.8789 12.4961 16.0898 11.9727H1.91016C2.12891 12.4961 2.35547 13.043 2.58984 13.6133C2.83203 14.1836 3.0625 14.8164 3.28125 15.5117C3.50781 16.207 3.70312 17 3.86719 17.8906C4.03125 18.7734 4.14453 19.793 4.20703 20.9492ZM17.0742 7.63672C17.0742 6.58203 16.8672 5.60547 16.4531 4.70703C16.0391 3.80078 15.4609 3.00781 14.7188 2.32812C13.9766 1.64844 13.1172 1.12109 12.1406 0.746094C11.1641 0.371094 10.1172 0.183594 9 0.183594C7.88281 0.183594 6.83594 0.371094 5.85938 0.746094C4.88281 1.12109 4.02344 1.64844 3.28125 2.32812C2.54688 3 1.96875 3.78906 1.54688 4.69531C1.13281 5.60156 0.925781 6.58203 0.925781 7.63672C0.925781 8.06641 0.949219 8.46484 0.996094 8.83203C1.05078 9.19922 1.125 9.55469 1.21875 9.89844H16.793C16.8789 9.55469 16.9453 9.19922 16.9922 8.83203C17.0469 8.46484 17.0742 8.06641 17.0742 7.63672Z" fill="white"/>
</svg>
