<svg width="26" height="27" viewBox="0 0 26 27" fill="none" xmlns="http://www.w3.org/2000/svg">
<path d="M17.8867 0.34375C16.8398 0.34375 15.8594 0.519531 14.9453 0.871094C14.0312 1.22266 13.2266 1.71875 12.5312 2.35938C11.8438 2.99219 11.3047 3.73438 10.9141 4.58594C10.5234 5.4375 10.3281 6.35938 10.3281 7.35156C10.3281 8.17969 10.4102 8.92188 10.5742 9.57812C10.7461 10.2344 10.9609 10.875 11.2188 11.5C11.4766 12.125 11.7461 12.8086 12.0273 13.5508C12.3164 14.293 12.582 15.1602 12.8242 16.1523C13.0742 17.1367 13.2617 18.3281 13.3867 19.7266C13.4102 20.0391 13.5156 20.2891 13.7031 20.4766C13.8906 20.6562 14.1445 20.7461 14.4648 20.7461H21.3203C21.6328 20.7461 21.8828 20.6562 22.0703 20.4766C22.2578 20.2891 22.3672 20.0391 22.3984 19.7266C22.5234 18.3281 22.707 17.1367 22.9492 16.1523C23.1992 15.1602 23.4648 14.293 23.7461 13.5508C24.0352 12.8086 24.3086 12.125 24.5664 11.5C24.832 10.875 25.0469 10.2383 25.2109 9.58984C25.3828 8.93359 25.4688 8.1875 25.4688 7.35156C25.4688 6.35938 25.2695 5.4375 24.8711 4.58594C24.4805 3.73438 23.9375 2.99219 23.2422 2.35938C22.5547 1.72656 21.7539 1.23438 20.8398 0.882812C19.9258 0.523437 18.9414 0.34375 17.8867 0.34375ZM14.3594 23.418H21.4258C21.6523 23.418 21.8438 23.3398 22 23.1836C22.1562 23.0352 22.2344 22.8516 22.2344 22.6328C22.2344 22.4141 22.1562 22.2266 22 22.0703C21.8438 21.9141 21.6523 21.8359 21.4258 21.8359H14.3594C14.1328 21.8359 13.9453 21.9141 13.7969 22.0703C13.6484 22.2266 13.5742 22.4141 13.5742 22.6328C13.5742 22.8516 13.6484 23.0352 13.7969 23.1836C13.9453 23.3398 14.1328 23.418 14.3594 23.418ZM17.8984 26.7344C18.7891 26.7344 19.5508 26.5312 20.1836 26.125C20.8164 25.7188 21.1562 25.1797 21.2031 24.5078H14.5703C14.6172 25.1797 14.957 25.7188 15.5898 26.125C16.2305 26.5312 17 26.7344 17.8984 26.7344ZM7.16406 1.97266C6.25 1.97266 5.39062 2.12891 4.58594 2.44141C3.78125 2.74609 3.07422 3.17969 2.46484 3.74219C1.85547 4.30469 1.37891 4.96094 1.03516 5.71094C0.691406 6.46094 0.519531 7.27344 0.519531 8.14844C0.519531 8.875 0.59375 9.52734 0.742188 10.1055C0.890625 10.6758 1.07812 11.2383 1.30469 11.793C1.53125 12.3398 1.76562 12.9375 2.00781 13.5859C2.25781 14.2266 2.48828 14.9766 2.69922 15.8359C2.91016 16.6875 3.07031 17.7148 3.17969 18.918C3.20312 19.207 3.30078 19.4375 3.47266 19.6094C3.65234 19.7812 3.89062 19.8672 4.1875 19.8672H10.1523C10.4414 19.8672 10.6719 19.7812 10.8438 19.6094C11.0234 19.4375 11.1289 19.207 11.1602 18.918C11.1914 18.5664 11.2305 18.2344 11.2773 17.9219C11.332 17.6016 11.3828 17.293 11.4297 16.9961C11.2031 16.0352 10.9414 15.1836 10.6445 14.4414C10.3555 13.6914 10.0703 12.9727 9.78906 12.2852C9.50781 11.5977 9.27734 10.8633 9.09766 10.082C8.92578 9.29297 8.83984 8.38281 8.83984 7.35156C8.83984 6.47656 8.96484 5.64844 9.21484 4.86719C9.47266 4.07812 9.83203 3.35156 10.293 2.6875C9.34766 2.21094 8.30469 1.97266 7.16406 1.97266ZM4.09375 22.3633H10.2461C10.457 22.3633 10.6367 22.2891 10.7852 22.1406C10.9414 22 11.0195 21.8242 11.0195 21.6133C11.0195 21.4023 10.9414 21.2266 10.7852 21.0859C10.6367 20.9375 10.457 20.8633 10.2461 20.8633H4.09375C3.88281 20.8633 3.70312 20.9375 3.55469 21.0859C3.41406 21.2344 3.34375 21.4102 3.34375 21.6133C3.34375 21.8164 3.41406 21.9922 3.55469 22.1406C3.70312 22.2891 3.88281 22.3633 4.09375 22.3633ZM7.17578 25.4219C7.98047 25.4219 8.66797 25.2305 9.23828 24.8477C9.80859 24.4727 10.1055 23.9766 10.1289 23.3594H4.21094C4.23438 23.9766 4.53125 24.4727 5.10156 24.8477C5.67188 25.2305 6.36328 25.4219 7.17578 25.4219Z" fill="white"/>
</svg>
