<svg width="20" height="29" viewBox="0 0 20 29" fill="none" xmlns="http://www.w3.org/2000/svg">
<path d="M0.144531 6.39453H19.8438C19.8906 6.19922 19.9141 6.00781 19.9141 5.82031C19.9141 4.22656 19.043 3 17.3008 2.14062C15.5664 1.28125 13.1328 0.851562 10 0.851562C6.86719 0.851562 4.42969 1.28125 2.6875 2.14062C0.953125 3 0.0859375 4.22656 0.0859375 5.82031C0.0859375 6.00781 0.105469 6.19922 0.144531 6.39453ZM7.23438 21.9922H12.7539C13.0273 21.9922 13.2383 21.918 13.3867 21.7695C13.543 21.6133 13.6211 21.3984 13.6211 21.125V19.9297C13.6211 18.8594 13.7578 17.875 14.0312 16.9766C14.3047 16.0781 14.6602 15.2461 15.0977 14.4805C15.543 13.7148 16.0195 12.9922 16.5273 12.3125C17.0352 11.6328 17.5234 10.9805 17.9922 10.3555C18.4609 9.73047 18.8594 9.10156 19.1875 8.46875H0.824219C1.14453 9.09375 1.53906 9.72266 2.00781 10.3555C2.48438 10.9805 2.97266 11.6367 3.47266 12.3242C3.98047 13.0039 4.45312 13.7266 4.89062 14.4922C5.32812 15.2578 5.68359 16.0898 5.95703 16.9883C6.23047 17.8867 6.36719 18.8672 6.36719 19.9297V21.125C6.36719 21.3984 6.44141 21.6133 6.58984 21.7695C6.74609 21.918 6.96094 21.9922 7.23438 21.9922ZM7.16406 24.8867H12.8477C13.0742 24.8867 13.2617 24.8047 13.4102 24.6406C13.5664 24.4844 13.6445 24.3008 13.6445 24.0898C13.6445 23.8711 13.5664 23.6836 13.4102 23.5273C13.2617 23.3711 13.0742 23.293 12.8477 23.293H7.16406C6.92969 23.293 6.73438 23.3711 6.57812 23.5273C6.42188 23.6836 6.34375 23.8711 6.34375 24.0898C6.34375 24.3008 6.42188 24.4844 6.57812 24.6406C6.73438 24.8047 6.92969 24.8867 7.16406 24.8867ZM10 28.4023C10.8203 28.4023 11.5039 28.1953 12.0508 27.7812C12.6055 27.375 12.9336 26.832 13.0352 26.1523H6.95312C7.04688 26.832 7.36719 27.375 7.91406 27.7812C8.46875 28.1953 9.16406 28.4023 10 28.4023Z" fill="white"/>
</svg>
