<svg width="30" height="25" viewBox="0 0 30 25" fill="none" xmlns="http://www.w3.org/2000/svg">
<path d="M4.11328 24.3984H25.8867C26.6445 24.3984 27.293 24.2539 27.832 23.9648C28.3711 23.6836 28.7812 23.2734 29.0625 22.7344C29.3438 22.2031 29.4844 21.5625 29.4844 20.8125V4.28906C29.4844 3.53906 29.3438 2.89844 29.0625 2.36719C28.7812 1.82812 28.3711 1.41797 27.832 1.13672C27.293 0.847656 26.6445 0.703125 25.8867 0.703125H4.11328C3.35547 0.703125 2.70703 0.847656 2.16797 1.13672C1.63672 1.41797 1.22656 1.82812 0.9375 2.36719C0.65625 2.89844 0.515625 3.53906 0.515625 4.28906V20.8125C0.515625 21.5625 0.65625 22.2031 0.9375 22.7344C1.22656 23.2734 1.63672 23.6836 2.16797 23.9648C2.70703 24.2539 3.35547 24.3984 4.11328 24.3984ZM4.27734 21.9258C3.87891 21.9258 3.56641 21.8086 3.33984 21.5742C3.11328 21.3477 3 21.0273 3 20.6133V4.5C3 4.07812 3.11328 3.75391 3.33984 3.52734C3.56641 3.29297 3.87891 3.17578 4.27734 3.17578H25.7578C26.1484 3.17578 26.4531 3.28516 26.6719 3.50391C26.8984 3.72266 27.0117 4.03906 27.0117 4.45312V20.6484C27.0117 21.0625 26.8984 21.3789 26.6719 21.5977C26.4531 21.8164 26.1484 21.9258 25.7578 21.9258H4.27734ZM8.49609 11.7188C9.13672 11.7188 9.71875 11.5625 10.2422 11.25C10.7734 10.9375 11.1953 10.5195 11.5078 9.99609C11.8203 9.47266 11.9766 8.88672 11.9766 8.23828C11.9766 7.60547 11.8203 7.02734 11.5078 6.50391C11.1953 5.97266 10.7734 5.55078 10.2422 5.23828C9.71875 4.91797 9.13672 4.75781 8.49609 4.75781C7.86328 4.75781 7.28125 4.91797 6.75 5.23828C6.22656 5.55078 5.80859 5.97266 5.49609 6.50391C5.18359 7.02734 5.02734 7.60547 5.02734 8.23828C5.02734 8.88672 5.18359 9.47266 5.49609 9.99609C5.80859 10.5195 6.22656 10.9375 6.75 11.25C7.28125 11.5625 7.86328 11.7188 8.49609 11.7188ZM8.49609 10.4883C7.87891 10.4883 7.35156 10.2695 6.91406 9.83203C6.47656 9.39453 6.25781 8.86328 6.25781 8.23828C6.25781 7.61328 6.47656 7.08203 6.91406 6.64453C7.35156 6.20703 7.87891 5.98828 8.49609 5.98828C9.12109 5.98828 9.65234 6.20703 10.0898 6.64453C10.5273 7.08203 10.7461 7.61328 10.7461 8.23828C10.7461 8.86328 10.5273 9.39453 10.0898 9.83203C9.65234 10.2695 9.12109 10.4883 8.49609 10.4883ZM8.49609 9.92578C8.97266 9.92578 9.37109 9.76562 9.69141 9.44531C10.0117 9.11719 10.1719 8.71484 10.1719 8.23828C10.1719 7.76953 10.0117 7.375 9.69141 7.05469C9.37109 6.72656 8.97266 6.5625 8.49609 6.5625C8.02734 6.5625 7.63281 6.72656 7.3125 7.05469C6.99219 7.375 6.83203 7.76953 6.83203 8.23828C6.83203 8.71484 6.99219 9.11719 7.3125 9.44531C7.63281 9.76562 8.02734 9.92578 8.49609 9.92578ZM17.3789 11.7188C18.0117 11.7188 18.5898 11.5625 19.1133 11.25C19.6367 10.9375 20.0547 10.5195 20.3672 9.99609C20.6797 9.47266 20.8359 8.88672 20.8359 8.23828C20.8359 7.60547 20.6797 7.02734 20.3672 6.50391C20.0547 5.97266 19.6367 5.55078 19.1133 5.23828C18.5898 4.91797 18.0117 4.75781 17.3789 4.75781C16.7305 4.75781 16.1445 4.91797 15.6211 5.23828C15.0977 5.55078 14.6797 5.97266 14.3672 6.50391C14.0547 7.02734 13.8984 7.60547 13.8984 8.23828C13.8984 8.88672 14.0547 9.47266 14.3672 9.99609C14.6797 10.5195 15.0977 10.9375 15.6211 11.25C16.1445 11.5625 16.7305 11.7188 17.3789 11.7188ZM17.3789 10.4883C16.7539 10.4883 16.2227 10.2695 15.7852 9.83203C15.3477 9.39453 15.1289 8.86328 15.1289 8.23828C15.1289 7.61328 15.3477 7.08203 15.7852 6.64453C16.2227 6.20703 16.7539 5.98828 17.3789 5.98828C17.9883 5.98828 18.5117 6.20703 18.9492 6.64453C19.3867 7.08203 19.6055 7.61328 19.6055 8.23828C19.6055 8.86328 19.3867 9.39453 18.9492 9.83203C18.5117 10.2695 17.9883 10.4883 17.3789 10.4883ZM17.3789 9.92578C17.8398 9.92578 18.2305 9.76562 18.5508 9.44531C18.8789 9.11719 19.043 8.71484 19.043 8.23828C19.043 7.76953 18.8789 7.375 18.5508 7.05469C18.2305 6.72656 17.8398 6.5625 17.3789 6.5625C16.9023 6.5625 16.5 6.72656 16.1719 7.05469C15.8516 7.375 15.6914 7.76953 15.6914 8.23828C15.6914 8.71484 15.8516 9.11719 16.1719 9.44531C16.5 9.76562 16.9023 9.92578 17.3789 9.92578ZM8.49609 20.2969C9.13672 20.2969 9.71875 20.1406 10.2422 19.8281C10.7734 19.5156 11.1953 19.0977 11.5078 18.5742C11.8203 18.0508 11.9766 17.4648 11.9766 16.8164C11.9766 16.1836 11.8203 15.6055 11.5078 15.082C11.1953 14.5508 10.7734 14.1289 10.2422 13.8164C9.71875 13.5039 9.13672 13.3477 8.49609 13.3477C7.86328 13.3477 7.28125 13.5039 6.75 13.8164C6.22656 14.1289 5.80859 14.5508 5.49609 15.082C5.18359 15.6055 5.02734 16.1836 5.02734 16.8164C5.02734 17.4648 5.18359 18.0508 5.49609 18.5742C5.80859 19.0977 6.22656 19.5156 6.75 19.8281C7.28125 20.1406 7.86328 20.2969 8.49609 20.2969ZM8.49609 19.0664C7.87891 19.0664 7.35156 18.8477 6.91406 18.4102C6.47656 17.9727 6.25781 17.4414 6.25781 16.8164C6.25781 16.1992 6.47656 15.6719 6.91406 15.2344C7.35156 14.7969 7.87891 14.5781 8.49609 14.5781C9.12109 14.5781 9.65234 14.7969 10.0898 15.2344C10.5273 15.6719 10.7461 16.1992 10.7461 16.8164C10.7461 17.4414 10.5273 17.9727 10.0898 18.4102C9.65234 18.8477 9.12109 19.0664 8.49609 19.0664ZM8.49609 18.5039C8.97266 18.5039 9.37109 18.3438 9.69141 18.0234C10.0117 17.6953 10.1719 17.293 10.1719 16.8164C10.1719 16.3477 10.0117 15.9531 9.69141 15.6328C9.37109 15.3047 8.97266 15.1406 8.49609 15.1406C8.02734 15.1406 7.63281 15.3047 7.3125 15.6328C6.99219 15.9531 6.83203 16.3477 6.83203 16.8164C6.83203 17.293 6.99219 17.6953 7.3125 18.0234C7.63281 18.3438 8.02734 18.5039 8.49609 18.5039ZM17.3789 20.2969C18.0117 20.2969 18.5898 20.1406 19.1133 19.8281C19.6367 19.5156 20.0547 19.0977 20.3672 18.5742C20.6797 18.0508 20.8359 17.4648 20.8359 16.8164C20.8359 16.1836 20.6797 15.6055 20.3672 15.082C20.0547 14.5508 19.6367 14.1289 19.1133 13.8164C18.5898 13.5039 18.0117 13.3477 17.3789 13.3477C16.7305 13.3477 16.1445 13.5039 15.6211 13.8164C15.0977 14.1289 14.6797 14.5508 14.3672 15.082C14.0547 15.6055 13.8984 16.1836 13.8984 16.8164C13.8984 17.4648 14.0547 18.0508 14.3672 18.5742C14.6797 19.0977 15.0977 19.5156 15.6211 19.8281C16.1445 20.1406 16.7305 20.2969 17.3789 20.2969ZM17.3789 19.0664C16.7539 19.0664 16.2227 18.8477 15.7852 18.4102C15.3477 17.9727 15.1289 17.4414 15.1289 16.8164C15.1289 16.1992 15.3477 15.6719 15.7852 15.2344C16.2227 14.7969 16.7539 14.5781 17.3789 14.5781C17.9883 14.5781 18.5117 14.7969 18.9492 15.2344C19.3867 15.6719 19.6055 16.1992 19.6055 16.8164C19.6055 17.4414 19.3867 17.9727 18.9492 18.4102C18.5117 18.8477 17.9883 19.0664 17.3789 19.0664ZM17.3789 18.5039C17.8398 18.5039 18.2305 18.3438 18.5508 18.0234C18.8789 17.6953 19.043 17.293 19.043 16.8164C19.043 16.3477 18.8789 15.9531 18.5508 15.6328C18.2305 15.3047 17.8398 15.1406 17.3789 15.1406C16.9023 15.1406 16.5 15.3047 16.1719 15.6328C15.8516 15.9531 15.6914 16.3477 15.6914 16.8164C15.6914 17.293 15.8516 17.6953 16.1719 18.0234C16.5 18.3438 16.9023 18.5039 17.3789 18.5039ZM24.3516 8.625C24.6562 8.625 24.9102 8.51953 25.1133 8.30859C25.3242 8.09766 25.4297 7.83984 25.4297 7.53516C25.4297 7.23828 25.3242 6.98438 25.1133 6.77344C24.9102 6.5625 24.6562 6.45703 24.3516 6.45703C24.0547 6.45703 23.7969 6.5625 23.5781 6.77344C23.3672 6.98438 23.2617 7.23828 23.2617 7.53516C23.2617 7.83984 23.3672 8.09766 23.5781 8.30859C23.7969 8.51953 24.0547 8.625 24.3516 8.625ZM24.3516 11.9531C24.6562 11.9531 24.9102 11.8477 25.1133 11.6367C25.3242 11.4258 25.4297 11.168 25.4297 10.8633C25.4297 10.5664 25.3242 10.3125 25.1133 10.1016C24.9102 9.89062 24.6562 9.78516 24.3516 9.78516C24.0547 9.78516 23.7969 9.89062 23.5781 10.1016C23.3672 10.3125 23.2617 10.5664 23.2617 10.8633C23.2617 11.168 23.3672 11.4258 23.5781 11.6367C23.7969 11.8477 24.0547 11.9531 24.3516 11.9531ZM24.3516 15.293C24.6562 15.293 24.9102 15.1875 25.1133 14.9766C25.3242 14.7578 25.4297 14.5 25.4297 14.2031C25.4297 13.9062 25.3242 13.6523 25.1133 13.4414C24.9102 13.2305 24.6562 13.125 24.3516 13.125C24.0547 13.125 23.7969 13.2305 23.5781 13.4414C23.3672 13.6523 23.2617 13.9062 23.2617 14.2031C23.2617 14.5 23.3672 14.7578 23.5781 14.9766C23.7969 15.1875 24.0547 15.293 24.3516 15.293ZM24.3516 18.6211C24.6562 18.6211 24.9102 18.5156 25.1133 18.3047C25.3242 18.0938 25.4297 17.8398 25.4297 17.543C25.4297 17.2383 25.3242 16.9844 25.1133 16.7812C24.9102 16.5703 24.6562 16.4648 24.3516 16.4648C24.0547 16.4648 23.7969 16.5703 23.5781 16.7812C23.3672 16.9844 23.2617 17.2383 23.2617 17.543C23.2617 17.8398 23.3672 18.0938 23.5781 18.3047C23.7969 18.5156 24.0547 18.6211 24.3516 18.6211Z" fill="white"/>
</svg>
