<svg width="28" height="27" viewBox="0 0 28 27" fill="none" xmlns="http://www.w3.org/2000/svg">
<path d="M14 19.832C14.8594 19.832 15.668 19.668 16.4258 19.3398C17.1836 19.0117 17.8516 18.5586 18.4297 17.9805C19.0156 17.4023 19.4688 16.7344 19.7891 15.9766C20.1172 15.2109 20.2812 14.3984 20.2812 13.5391C20.2812 12.6719 20.1172 11.8594 19.7891 11.1016C19.4688 10.3359 19.0156 9.66406 18.4297 9.08594C17.8516 8.50781 17.1836 8.05469 16.4258 7.72656C15.668 7.39844 14.8594 7.23438 14 7.23438C13.1328 7.23438 12.3203 7.39844 11.5625 7.72656C10.8047 8.05469 10.1328 8.50781 9.54688 9.08594C8.96875 9.66406 8.51562 10.3359 8.1875 11.1016C7.86719 11.8594 7.70703 12.6719 7.70703 13.5391C7.70703 14.3984 7.86719 15.2109 8.1875 15.9766C8.51562 16.7344 8.96875 17.4023 9.54688 17.9805C10.1328 18.5586 10.8047 19.0117 11.5625 19.3398C12.3203 19.668 13.1328 19.832 14 19.832ZM14 17.3711C13.2969 17.3711 12.6562 17.1992 12.0781 16.8555C11.5 16.5039 11.0352 16.0391 10.6836 15.4609C10.3398 14.875 10.168 14.2344 10.168 13.5391C10.168 12.8438 10.3398 12.207 10.6836 11.6289C11.0352 11.043 11.5 10.5742 12.0781 10.2227C12.6562 9.87109 13.2969 9.69531 14 9.69531C14.6953 9.69531 15.332 9.87109 15.9102 10.2227C16.4883 10.5742 16.9492 11.043 17.293 11.6289C17.6445 12.207 17.8203 12.8438 17.8203 13.5391C17.8203 14.2344 17.6445 14.875 17.293 15.4609C16.9492 16.0391 16.4883 16.5039 15.9102 16.8555C15.332 17.1992 14.6953 17.3711 14 17.3711ZM14 5.17188C14.3516 5.17188 14.6523 5.04688 14.9023 4.79688C15.1602 4.53906 15.2891 4.23438 15.2891 3.88281V1.51562C15.2891 1.16406 15.1602 0.859375 14.9023 0.601562C14.6523 0.34375 14.3516 0.214844 14 0.214844C13.6484 0.214844 13.3438 0.34375 13.0859 0.601562C12.8359 0.859375 12.7109 1.16406 12.7109 1.51562V3.88281C12.7109 4.23438 12.8359 4.53906 13.0859 4.79688C13.3438 5.04688 13.6484 5.17188 14 5.17188ZM19.9062 7.65625C20.1562 7.89844 20.4609 8.01953 20.8203 8.01953C21.1797 8.01953 21.4844 7.89453 21.7344 7.64453L23.4102 5.95703C23.6602 5.71484 23.7812 5.41406 23.7734 5.05469C23.7734 4.6875 23.6484 4.37891 23.3984 4.12891C23.1562 3.88672 22.8555 3.76953 22.4961 3.77734C22.1367 3.77734 21.8359 3.89844 21.5938 4.14062L19.8945 5.83984C19.6523 6.08203 19.5312 6.38281 19.5312 6.74219C19.5391 7.10156 19.6641 7.40625 19.9062 7.65625ZM22.3555 13.5391C22.3555 13.8828 22.4805 14.1836 22.7305 14.4414C22.9883 14.6914 23.293 14.8164 23.6445 14.8164H26.0234C26.3672 14.8164 26.6641 14.6914 26.9141 14.4414C27.1719 14.1836 27.3008 13.8828 27.3008 13.5391C27.3008 13.1875 27.1719 12.8867 26.9141 12.6367C26.6641 12.3789 26.3672 12.25 26.0234 12.25H23.6445C23.293 12.25 22.9883 12.3789 22.7305 12.6367C22.4805 12.8867 22.3555 13.1875 22.3555 13.5391ZM19.8945 19.4453C19.6523 19.6953 19.5312 20 19.5312 20.3594C19.5391 20.7109 19.6641 21.0078 19.9062 21.25L21.6055 22.9492C21.8477 23.1914 22.1484 23.3086 22.5078 23.3008C22.8672 23.293 23.1719 23.1719 23.4219 22.9375C23.6641 22.6875 23.7852 22.3828 23.7852 22.0234C23.7852 21.6719 23.6602 21.3711 23.4102 21.1211L21.7109 19.4336C21.4688 19.1914 21.168 19.0742 20.8086 19.082C20.4492 19.082 20.1445 19.2031 19.8945 19.4453ZM14 21.9062C13.6484 21.9062 13.3438 22.0312 13.0859 22.2812C12.8359 22.5391 12.7109 22.8398 12.7109 23.1836V25.5625C12.7109 25.9141 12.8359 26.2148 13.0859 26.4648C13.3438 26.7227 13.6484 26.8516 14 26.8516C14.3516 26.8516 14.6523 26.7227 14.9023 26.4648C15.1602 26.2148 15.2891 25.9141 15.2891 25.5625V23.1836C15.2891 22.8398 15.1602 22.5391 14.9023 22.2812C14.6523 22.0312 14.3516 21.9062 14 21.9062ZM8.10547 19.4453C7.85547 19.2031 7.54688 19.082 7.17969 19.082C6.82031 19.0742 6.51953 19.1914 6.27734 19.4336L4.58984 21.1094C4.33984 21.3594 4.21094 21.6602 4.20312 22.0117C4.20312 22.3711 4.32422 22.6758 4.56641 22.9258C4.81641 23.168 5.12109 23.2891 5.48047 23.2891C5.83984 23.2969 6.14453 23.1836 6.39453 22.9492L8.08203 21.25C8.32422 21.0078 8.44531 20.7109 8.44531 20.3594C8.45312 20 8.33984 19.6953 8.10547 19.4453ZM5.64453 13.5391C5.64453 13.1875 5.51562 12.8867 5.25781 12.6367C5.00781 12.3789 4.70312 12.25 4.34375 12.25H1.97656C1.63281 12.25 1.33203 12.3789 1.07422 12.6367C0.824219 12.8867 0.699219 13.1875 0.699219 13.5391C0.699219 13.8828 0.824219 14.1836 1.07422 14.4414C1.33203 14.6914 1.63281 14.8164 1.97656 14.8164H4.34375C4.70312 14.8164 5.00781 14.6914 5.25781 14.4414C5.51562 14.1836 5.64453 13.8828 5.64453 13.5391ZM8.08203 7.65625C8.32422 7.41406 8.44531 7.11328 8.44531 6.75391C8.45312 6.38672 8.33984 6.08203 8.10547 5.83984L6.41797 4.14062C6.16797 3.89844 5.86328 3.77734 5.50391 3.77734C5.14453 3.76953 4.84375 3.88672 4.60156 4.12891C4.35156 4.37891 4.22656 4.6875 4.22656 5.05469C4.22656 5.41406 4.34375 5.71094 4.57812 5.94531L6.26562 7.64453C6.50781 7.88672 6.80859 8.01172 7.16797 8.01953C7.52734 8.01953 7.83203 7.89844 8.08203 7.65625Z" fill="white"/>
</svg>
