<svg width="32" height="21" viewBox="0 0 32 21" fill="none" xmlns="http://www.w3.org/2000/svg">
<path d="M10.9609 18.3945H14.3945C13.6836 18.0898 13.0859 17.5859 12.6016 16.8828C12.1172 16.1797 11.875 15.3906 11.875 14.5156C11.875 13.7578 12.0586 13.0664 12.4258 12.4414C12.8008 11.8086 13.3008 11.3086 13.9258 10.9414C14.5508 10.5664 15.2422 10.3789 16 10.3789C16.75 10.3789 17.4375 10.5664 18.0625 10.9414C18.6875 11.3086 19.1836 11.8086 19.5508 12.4414C19.9258 13.0664 20.1133 13.7578 20.1133 14.5156C20.1133 15.3906 19.8711 16.1797 19.3867 16.8828C18.9023 17.5859 18.3047 18.0898 17.5938 18.3945H21.0273C21.4805 17.8633 21.8242 17.2656 22.0586 16.6016C22.3008 15.9375 22.4219 15.2422 22.4219 14.5156C22.4219 13.625 22.2539 12.793 21.918 12.0195C21.5898 11.2383 21.1289 10.5508 20.5352 9.95703C19.9414 9.36328 19.2539 8.90234 18.4727 8.57422C17.6992 8.23828 16.875 8.07031 16 8.07031C15.1172 8.07031 14.2852 8.23828 13.5039 8.57422C12.7305 8.90234 12.0469 9.36328 11.4531 9.95703C10.8594 10.5508 10.3945 11.2383 10.0586 12.0195C9.73047 12.793 9.56641 13.625 9.56641 14.5156C9.56641 15.2422 9.68359 15.9375 9.91797 16.6016C10.1602 17.2656 10.5078 17.8633 10.9609 18.3945ZM3.66016 15.0547H6.25C6.58594 15.0547 6.86719 14.9492 7.09375 14.7383C7.32031 14.5195 7.43359 14.2578 7.43359 13.9531C7.42578 13.6484 7.30859 13.3906 7.08203 13.1797C6.86328 12.9609 6.58594 12.8516 6.25 12.8516H3.66016C3.32422 12.8516 3.04297 12.9609 2.81641 13.1797C2.58984 13.3906 2.47656 13.6484 2.47656 13.9531C2.47656 14.2578 2.58984 14.5195 2.81641 14.7383C3.04297 14.9492 3.32422 15.0547 3.66016 15.0547ZM9.94141 8.45703C10.1523 8.23828 10.2539 7.97266 10.2461 7.66016C10.2461 7.34766 10.125 7.07422 9.88281 6.83984L8.05469 5.01172C7.8125 4.76953 7.53516 4.64844 7.22266 4.64844C6.91797 4.64062 6.65625 4.74219 6.4375 4.95312C6.21875 5.16406 6.10938 5.42969 6.10938 5.75C6.11719 6.0625 6.24219 6.33594 6.48438 6.57031L8.3125 8.39844C8.54688 8.64062 8.82422 8.76562 9.14453 8.77344C9.46484 8.78125 9.73047 8.67578 9.94141 8.45703ZM22.0469 8.45703C22.2656 8.66797 22.5312 8.77344 22.8438 8.77344C23.1641 8.76562 23.4414 8.64062 23.6758 8.39844L25.5039 6.57031C25.7461 6.33594 25.8672 6.0625 25.8672 5.75C25.875 5.4375 25.7695 5.17188 25.5508 4.95312C25.3398 4.74219 25.0781 4.64062 24.7656 4.64844C24.4531 4.64844 24.1758 4.76953 23.9336 5.01172L22.1055 6.83984C21.8633 7.07422 21.7383 7.35156 21.7305 7.67188C21.7227 7.98438 21.8281 8.24609 22.0469 8.45703ZM25.7383 15.0547H28.3281C28.6719 15.0547 28.9531 14.9492 29.1719 14.7383C29.3984 14.5195 29.5117 14.2578 29.5117 13.9531C29.5117 13.6484 29.3984 13.3906 29.1719 13.1797C28.9531 12.9609 28.6719 12.8516 28.3281 12.8516H25.7383C25.4102 12.8516 25.1289 12.9609 24.8945 13.1797C24.668 13.3906 24.5547 13.6484 24.5547 13.9531C24.5625 14.2578 24.6797 14.5195 24.9062 14.7383C25.1328 14.9492 25.4102 15.0547 25.7383 15.0547ZM16 5.96094C16.2969 5.95312 16.5547 5.83594 16.7734 5.60938C16.9922 5.375 17.1016 5.09375 17.1016 4.76562V2.17578C17.1016 1.83984 16.9922 1.55859 16.7734 1.33203C16.5547 1.10547 16.2969 0.992188 16 0.992188C15.6953 0.992188 15.4336 1.10547 15.2148 1.33203C14.9961 1.55859 14.8867 1.83984 14.8867 2.17578V4.76562C14.8867 5.09375 14.9961 5.375 15.2148 5.60938C15.4336 5.84375 15.6953 5.96094 16 5.96094ZM2.25391 20.457H29.7344C30.0859 20.457 30.3867 20.332 30.6367 20.082C30.8867 19.8398 31.0117 19.5547 31.0117 19.2266C31.0117 18.8828 30.8867 18.5938 30.6367 18.3594C30.3867 18.1172 30.0859 17.9961 29.7344 17.9961H2.25391C1.90234 17.9961 1.60156 18.1172 1.35156 18.3594C1.10156 18.6016 0.976562 18.8906 0.976562 19.2266C0.976562 19.5547 1.10156 19.8398 1.35156 20.082C1.60156 20.332 1.90234 20.457 2.25391 20.457Z" fill="white"/>
</svg>
