<svg width="30" height="27" viewBox="0 0 30 27" fill="none" xmlns="http://www.w3.org/2000/svg">
<path d="M1.41797 26.2305C1.77734 26.2305 2.08203 26.1016 2.33203 25.8438C2.58984 25.5938 2.71875 25.2891 2.71875 24.9297V4.11719C2.71875 3.67969 2.92969 3.46094 3.35156 3.46094H26.625C27.0469 3.46094 27.2578 3.67969 27.2578 4.11719V24.9297C27.2578 25.2891 27.3828 25.5938 27.6328 25.8438C27.8906 26.1016 28.1992 26.2305 28.5586 26.2305C28.9258 26.2305 29.2344 26.1016 29.4844 25.8438C29.7422 25.5938 29.8711 25.2891 29.8711 24.9297V3.82422C29.8711 2.91797 29.5977 2.19922 29.0508 1.66797C28.5117 1.12891 27.7773 0.859375 26.8477 0.859375H3.12891C2.20703 0.859375 1.47266 1.12891 0.925781 1.66797C0.386719 2.19922 0.117188 2.91797 0.117188 3.82422V24.9297C0.117188 25.2891 0.242188 25.5938 0.492188 25.8438C0.75 26.1016 1.05859 26.2305 1.41797 26.2305ZM4.5 25.668H25.4766C25.7266 25.668 25.8516 25.543 25.8516 25.293V5.24219C25.8516 4.99219 25.7266 4.86719 25.4766 4.86719H4.5C4.25781 4.86719 4.13672 4.99219 4.13672 5.24219V25.293C4.13672 25.543 4.25781 25.668 4.5 25.668ZM12.6445 23.6172C12.457 23.6172 12.3008 23.5547 12.1758 23.4297C12.0508 23.3047 11.9883 23.1484 11.9883 22.9609C11.9883 22.7656 12.0508 22.6055 12.1758 22.4805C12.3008 22.3555 12.457 22.293 12.6445 22.293H17.3438C17.5234 22.293 17.6758 22.3555 17.8008 22.4805C17.9336 22.6055 18 22.7656 18 22.9609C18 23.1484 17.9336 23.3047 17.8008 23.4297C17.6758 23.5547 17.5234 23.6172 17.3438 23.6172H12.6445ZM6.31641 11.4766C5.97266 11.4766 5.80078 11.3047 5.80078 10.9609V6.97656C5.80078 6.63281 5.97266 6.46094 6.31641 6.46094H10.4414C10.7852 6.46094 10.957 6.63281 10.957 6.97656V10.9609C10.957 11.3047 10.7852 11.4766 10.4414 11.4766H6.31641ZM12.9492 11.4766C12.6055 11.4766 12.4336 11.3047 12.4336 10.9609V6.97656C12.4336 6.63281 12.6055 6.46094 12.9492 6.46094H17.0625C17.4141 6.46094 17.5898 6.63281 17.5898 6.97656V10.9609C17.5898 11.3047 17.4141 11.4766 17.0625 11.4766H12.9492ZM19.5703 11.4766C19.2266 11.4766 19.0547 11.3047 19.0547 10.9609V6.97656C19.0547 6.63281 19.2266 6.46094 19.5703 6.46094H23.6719C24.0078 6.46094 24.1758 6.63281 24.1758 6.97656V10.9609C24.1758 11.1172 24.1289 11.2422 24.0352 11.3359C23.9492 11.4297 23.8477 11.4766 23.7305 11.4766H19.5703Z" fill="white"/>
</svg>
