<svg width="26" height="23" viewBox="0 0 26 23" fill="none" xmlns="http://www.w3.org/2000/svg">
<path d="M13 22.6484C14.0938 22.6484 15.0469 22.6094 15.8594 22.5312C16.6797 22.4531 17.3984 22.3281 18.0156 22.1562C18.6328 21.9844 19.1875 21.7539 19.6797 21.4648C20.1719 21.1836 20.6445 20.832 21.0977 20.4102C22.3398 19.2695 23.3047 17.9102 23.9922 16.332C24.6875 14.7539 25.0352 13.0938 25.0352 11.3516C25.0352 9.97656 24.8047 8.63281 24.3438 7.32031C23.8906 6.00781 23.1992 4.79297 22.2695 3.67578C21.9805 3.30859 21.6836 3.11328 21.3789 3.08984C21.0742 3.05859 20.7617 3.15234 20.4414 3.37109C19.8477 3.79297 19.1953 4.14844 18.4844 4.4375C17.7812 4.71875 16.9844 4.93359 16.0938 5.08203C15.2031 5.22266 14.1719 5.29297 13 5.29297C11.8359 5.29297 10.8047 5.22266 9.90625 5.08203C9.01562 4.93359 8.21875 4.71875 7.51562 4.4375C6.8125 4.14844 6.16406 3.79297 5.57031 3.37109C5.25 3.15234 4.93359 3.05859 4.62109 3.08984C4.31641 3.11328 4.02344 3.30859 3.74219 3.67578C2.8125 4.79297 2.11719 6.00781 1.65625 7.32031C1.19531 8.63281 0.964844 9.97656 0.964844 11.3516C0.964844 13.0938 1.30859 14.7539 1.99609 16.332C2.69141 17.9102 3.66406 19.2695 4.91406 20.4102C5.35938 20.832 5.82812 21.1836 6.32031 21.4648C6.82031 21.7539 7.37891 21.9844 7.99609 22.1562C8.61328 22.3281 9.32812 22.4531 10.1406 22.5312C10.9531 22.6094 11.9062 22.6484 13 22.6484ZM13 3.61719C14.0938 3.61719 15.0625 3.55469 15.9062 3.42969C16.75 3.29688 17.4102 3.11719 17.8867 2.89062C18.3633 2.65625 18.6016 2.39062 18.6016 2.09375C18.6016 1.78906 18.3633 1.52344 17.8867 1.29688C17.4102 1.0625 16.75 0.882812 15.9062 0.757812C15.0625 0.632812 14.0938 0.570312 13 0.570312C11.9219 0.570312 10.9609 0.632812 10.1172 0.757812C9.28125 0.882812 8.625 1.0625 8.14844 1.29688C7.67188 1.52344 7.43359 1.78906 7.43359 2.09375C7.43359 2.39062 7.67188 2.65625 8.14844 2.89062C8.625 3.11719 9.28125 3.29688 10.1172 3.42969C10.9609 3.55469 11.9219 3.61719 13 3.61719Z" fill="white"/>
</svg>
