<svg width="20" height="26" viewBox="0 0 20 26" fill="none" xmlns="http://www.w3.org/2000/svg">
<path d="M9.98828 25.0312C13.3789 25.0312 15.8672 24.4023 17.4531 23.1445C19.0469 21.8867 19.8438 19.9023 19.8438 17.1914V7.99219C19.8438 7.33594 19.793 6.72266 19.6914 6.15234C19.5977 5.57422 19.457 5.04688 19.2695 4.57031C19.082 4.09375 18.8555 3.66797 18.5898 3.29297C18.4258 3.05859 18.2031 2.92188 17.9219 2.88281C17.6484 2.83594 17.3711 2.89844 17.0898 3.07031C16.6367 3.39062 16.0391 3.67969 15.2969 3.9375C14.5625 4.1875 13.7344 4.38672 12.8125 4.53516C11.8984 4.68359 10.957 4.75781 9.98828 4.75781C9.01172 4.75781 8.06641 4.68359 7.15234 4.53516C6.24609 4.38672 5.42188 4.1875 4.67969 3.9375C3.9375 3.67969 3.34375 3.39062 2.89844 3.07031C2.61719 2.89844 2.33594 2.83594 2.05469 2.88281C1.78125 2.92188 1.5625 3.05859 1.39844 3.29297C1.125 3.66797 0.894531 4.09375 0.707031 4.57031C0.519531 5.04688 0.378906 5.57422 0.285156 6.15234C0.191406 6.72266 0.144531 7.33594 0.144531 7.99219V17.1914C0.144531 19.9023 0.9375 21.8867 2.52344 23.1445C4.11719 24.4023 6.60547 25.0312 9.98828 25.0312ZM9.97656 3.14062C11.0312 3.14062 11.9727 3.07812 12.8008 2.95312C13.6367 2.82031 14.293 2.64062 14.7695 2.41406C15.2539 2.1875 15.4961 1.92188 15.4961 1.61719C15.4961 1.30469 15.2539 1.03516 14.7695 0.808594C14.293 0.582031 13.6367 0.40625 12.8008 0.28125C11.9727 0.148438 11.0312 0.0820312 9.97656 0.0820312C8.92969 0.0820312 7.99219 0.148438 7.16406 0.28125C6.34375 0.40625 5.69141 0.582031 5.20703 0.808594C4.73047 1.03516 4.49219 1.30469 4.49219 1.61719C4.49219 1.92188 4.73047 2.1875 5.20703 2.41406C5.69141 2.64062 6.34766 2.82031 7.17578 2.95312C8.00391 3.07812 8.9375 3.14062 9.97656 3.14062Z" fill="white"/>
</svg>
