<svg width="30" height="29" viewBox="0 0 30 29" fill="none" xmlns="http://www.w3.org/2000/svg">
<path d="M9.39844 3.3125C10.3594 3.3125 11.2148 3.25781 11.9648 3.14844C12.7227 3.03125 13.3203 2.87109 13.7578 2.66797C14.1953 2.45703 14.4141 2.21484 14.4141 1.94141C14.4141 1.65234 14.1953 1.40625 13.7578 1.20312C13.3203 1 12.7227 0.84375 11.9648 0.734375C11.2148 0.617188 10.3594 0.558594 9.39844 0.558594C8.45312 0.558594 7.60547 0.617188 6.85547 0.734375C6.10547 0.84375 5.51172 1 5.07422 1.20312C4.64453 1.40625 4.42969 1.65234 4.42969 1.94141C4.42969 2.21484 4.64453 2.45703 5.07422 2.66797C5.51172 2.87109 6.10547 3.03125 6.85547 3.14844C7.60547 3.25781 8.45312 3.3125 9.39844 3.3125ZM0.480469 16.0625C0.480469 18.3906 1.12891 20.1289 2.42578 21.2773C3.72266 22.418 5.76562 23.0352 8.55469 23.1289V14.6328C8.55469 13.3984 8.67969 12.3594 8.92969 11.5156C9.17969 10.6719 9.625 9.93359 10.2656 9.30078C10.8984 8.66797 11.6406 8.22266 12.4922 7.96484C13.3438 7.70703 14.3828 7.57812 15.6094 7.57812H18.3047C18.2969 7.46875 18.2891 7.35938 18.2812 7.25C18.2812 7.14062 18.2812 7.03125 18.2812 6.92188C18.25 6.45312 18.1875 6.01172 18.0938 5.59766C18 5.17578 17.875 4.78516 17.7188 4.42578C17.5625 4.06641 17.3828 3.74609 17.1797 3.46484C17.0312 3.24609 16.832 3.11719 16.582 3.07812C16.332 3.03906 16.0781 3.09766 15.8203 3.25391C15.3984 3.55078 14.8555 3.8125 14.1914 4.03906C13.5352 4.26562 12.793 4.44531 11.9648 4.57812C11.1445 4.71094 10.2891 4.77734 9.39844 4.77734C8.50781 4.77734 7.65234 4.71094 6.83203 4.57812C6.01172 4.44531 5.26953 4.26562 4.60547 4.03906C3.94141 3.8125 3.39844 3.55078 2.97656 3.25391C2.72656 3.09766 2.47266 3.03906 2.21484 3.07812C1.96484 3.11719 1.76562 3.24609 1.61719 3.46484C1.375 3.80078 1.16797 4.18359 0.996094 4.61328C0.832031 5.04297 0.703125 5.51953 0.609375 6.04297C0.523438 6.56641 0.480469 7.125 0.480469 7.71875V16.0625ZM15.6211 28.4844H24.2461C25.1367 28.4844 25.918 28.4062 26.5898 28.25C27.2695 28.1016 27.8555 27.7812 28.3477 27.2891C28.832 26.8047 29.1484 26.2266 29.2969 25.5547C29.4453 24.8906 29.5195 24.1094 29.5195 23.2109V14.6445C29.5195 13.7539 29.4453 12.9727 29.2969 12.3008C29.1484 11.6289 28.832 11.0508 28.3477 10.5664C27.8555 10.082 27.2695 9.76562 26.5898 9.61719C25.918 9.46094 25.1367 9.38281 24.2461 9.38281H15.6094C14.7266 9.38281 13.9453 9.46094 13.2656 9.61719C12.5938 9.76562 12.0156 10.082 11.5312 10.5664C11.0469 11.0508 10.7305 11.6289 10.582 12.3008C10.4336 12.9727 10.3594 13.75 10.3594 14.6328V23.2109C10.3594 24.1094 10.4336 24.8906 10.582 25.5547C10.7305 26.2266 11.0469 26.8047 11.5312 27.2891C12.0156 27.7812 12.5938 28.1016 13.2656 28.25C13.9453 28.4062 14.7305 28.4844 15.6211 28.4844ZM18.3164 20.1289C18.2461 20.3633 18.1328 20.6172 17.9766 20.8906C17.8281 21.1562 17.6484 21.3906 17.4375 21.5938C17.375 21.6484 17.2969 21.6953 17.2031 21.7344C17.1094 21.7734 17.0039 21.793 16.8867 21.793C16.7852 21.793 16.6953 21.7773 16.6172 21.7461C16.5391 21.707 16.4531 21.6719 16.3594 21.6406C16.2969 21.6328 16.2227 21.6133 16.1367 21.582C16.0586 21.543 15.9688 21.5234 15.8672 21.5234C15.6328 21.5234 15.4453 21.5703 15.3047 21.6641C15.1641 21.7578 15 21.8047 14.8125 21.8047C14.5859 21.8047 14.332 21.6445 14.0508 21.3242C13.7773 21.0273 13.5586 20.6602 13.3945 20.2227C13.2305 19.7852 13.1484 19.3594 13.1484 18.9453C13.1484 18.6953 13.1836 18.4531 13.2539 18.2188C13.3242 17.9844 13.4375 17.7695 13.5938 17.5742C13.875 17.2148 14.2656 17.0352 14.7656 17.0352C15 17.0352 15.1914 17.082 15.3398 17.1758C15.4883 17.2617 15.625 17.3047 15.75 17.3047C15.8906 17.3047 16.0508 17.2578 16.2305 17.1641C16.418 17.0703 16.6602 17.0234 16.957 17.0234C17.4805 17.0234 17.8828 17.2266 18.1641 17.6328C17.9766 17.7344 17.8398 17.8477 17.7539 17.9727C17.6758 18.0977 17.6211 18.2148 17.5898 18.3242C17.5195 18.4805 17.4805 18.6523 17.4727 18.8398C17.4727 19.0195 17.5117 19.1992 17.5898 19.3789C17.7227 19.7148 17.9648 19.9648 18.3164 20.1289ZM15.7148 16.8594C15.6992 16.5078 15.8164 16.1875 16.0664 15.8984C16.3164 15.6016 16.6328 15.4453 17.0156 15.4297C17.0312 15.6562 16.9844 15.8867 16.875 16.1211C16.7656 16.3477 16.6055 16.5352 16.3945 16.6836C16.1914 16.832 15.9648 16.8906 15.7148 16.8594ZM20.8945 15.8984V17.0234H21.7969V17.7617H20.8945V20.3867C20.8945 20.793 21.0859 20.9961 21.4688 20.9961C21.5156 20.9961 21.5742 20.9961 21.6445 20.9961C21.7148 20.9883 21.7617 20.9766 21.7852 20.9609V21.7578C21.7461 21.7578 21.6758 21.7656 21.5742 21.7812C21.4727 21.7891 21.3672 21.793 21.2578 21.793C20.7734 21.793 20.4258 21.6953 20.2148 21.5C20.0117 21.3047 19.9102 20.9727 19.9102 20.5039V17.7617H19.2422V17.0234H19.9102V15.8984H20.8945ZM25.0078 21.7578H23.9766L22.2422 17.0234H23.2734L24.4922 20.8203L25.6641 17.0234H26.7188L25.0078 21.7578Z" fill="white"/>
</svg>
