<svg width="30" height="27" viewBox="0 0 30 27" fill="none" xmlns="http://www.w3.org/2000/svg">
<path d="M18.1055 23.6445H11.8828V16.1445C11.8828 15.8633 11.9688 15.6406 12.1406 15.4766C12.3125 15.3125 12.5352 15.2305 12.8086 15.2305H17.1914C17.4727 15.2305 17.6953 15.3125 17.8594 15.4766C18.0234 15.6406 18.1055 15.8633 18.1055 16.1445V23.6445ZM4.34766 23.4688C4.34766 24.3359 4.60547 25.0156 5.12109 25.5078C5.64453 26.0078 6.35547 26.2578 7.25391 26.2578H22.7461C23.6445 26.2578 24.3516 26.0078 24.8672 25.5078C25.3828 25.0156 25.6406 24.3359 25.6406 23.4688V14.8086L15.7383 6.48828C15.2461 6.07422 14.7539 6.07422 14.2617 6.48828L4.34766 14.8086V23.4688ZM0.457031 12.875C0.457031 13.2266 0.578125 13.5273 0.820312 13.7773C1.0625 14.0195 1.38672 14.1406 1.79297 14.1406C1.99609 14.1406 2.1875 14.0977 2.36719 14.0117C2.54688 13.918 2.71484 13.8086 2.87109 13.6836L14.4492 3.96875C14.6289 3.8125 14.8164 3.73438 15.0117 3.73438C15.207 3.73438 15.3945 3.8125 15.5742 3.96875L27.1289 13.6836C27.2852 13.8086 27.4531 13.918 27.6328 14.0117C27.8125 14.0977 28.0039 14.1406 28.207 14.1406C28.582 14.1406 28.8945 14.0312 29.1445 13.8125C29.4023 13.5859 29.5312 13.2812 29.5312 12.8984C29.5312 12.4688 29.3594 12.1133 29.0156 11.832L16.8281 1.57812C16.2734 1.11719 15.668 0.886719 15.0117 0.886719C14.3555 0.886719 13.75 1.11719 13.1953 1.57812L0.984375 11.832C0.632812 12.1211 0.457031 12.4688 0.457031 12.875ZM22.125 6.91016L25.7109 9.92188V4.08594C25.7109 3.8125 25.6328 3.59766 25.4766 3.44141C25.3203 3.28516 25.1055 3.20703 24.832 3.20703H23.0156C22.75 3.20703 22.5352 3.28516 22.3711 3.44141C22.207 3.59766 22.125 3.8125 22.125 4.08594V6.91016Z" fill="white"/>
</svg>
