<svg width="32" height="27" viewBox="0 0 32 27" fill="none" xmlns="http://www.w3.org/2000/svg">
<path d="M11.0547 2.98047C12.0469 2.98047 12.9219 2.92578 13.6797 2.81641C14.4375 2.69922 15.0352 2.53516 15.4727 2.32422C15.918 2.11328 16.1406 1.86719 16.1406 1.58594C16.1406 1.3125 15.9219 1.07422 15.4844 0.871094C15.0469 0.660156 14.4453 0.5 13.6797 0.390625C12.9219 0.28125 12.0469 0.226562 11.0547 0.226562C10.0781 0.226562 9.21094 0.28125 8.45312 0.390625C7.69531 0.5 7.09766 0.660156 6.66016 0.871094C6.23047 1.07422 6.01562 1.3125 6.01562 1.58594C6.01562 1.86719 6.23438 2.11328 6.67188 2.32422C7.10938 2.53516 7.70703 2.69922 8.46484 2.81641C9.22266 2.92578 10.0859 2.98047 11.0547 2.98047ZM0.121094 10.0117C0.121094 11.5898 0.433594 13.0977 1.05859 14.5352C1.69141 15.9727 2.57812 17.207 3.71875 18.2383C4.13281 18.6367 4.57031 18.9648 5.03125 19.2227C5.49219 19.4805 6.02734 19.6875 6.63672 19.8438C6.42578 19.1641 6.26562 18.4727 6.15625 17.7695C6.05469 17.0664 6.00391 16.3555 6.00391 15.6367C6.00391 13.9727 6.28125 12.3828 6.83594 10.8672C7.39844 9.35156 8.19531 7.98828 9.22656 6.77734C9.64844 6.30078 10.0703 5.875 10.4922 5.5C10.9141 5.11719 11.3477 4.77734 11.793 4.48047C11.6758 4.49609 11.5547 4.50781 11.4297 4.51562C11.3125 4.51562 11.1797 4.51562 11.0312 4.51562C9.95312 4.51562 9.00781 4.44922 8.19531 4.31641C7.39062 4.18359 6.67578 3.98828 6.05078 3.73047C5.42578 3.46484 4.84766 3.13672 4.31641 2.74609C4.01172 2.55078 3.71875 2.46875 3.4375 2.5C3.16406 2.52344 2.89844 2.70312 2.64062 3.03906C1.80469 4.04688 1.17578 5.14453 0.753906 6.33203C0.332031 7.51953 0.121094 8.74609 0.121094 10.0117ZM19.832 7.89062C20.918 7.89062 21.8828 7.82812 22.7266 7.70312C23.5703 7.57031 24.2305 7.39062 24.707 7.16406C25.1914 6.9375 25.4336 6.67188 25.4336 6.36719C25.4336 6.0625 25.1914 5.79688 24.707 5.57031C24.2305 5.33594 23.5703 5.16016 22.7266 5.04297C21.8906 4.91797 20.9258 4.85547 19.832 4.85547C18.7539 4.85547 17.793 4.91797 16.9492 5.04297C16.1133 5.16016 15.4531 5.33594 14.9688 5.57031C14.4922 5.79688 14.2539 6.0625 14.2539 6.36719C14.2539 6.67188 14.4922 6.9375 14.9688 7.16406C15.4531 7.39062 16.1133 7.57031 16.9492 7.70312C17.793 7.82812 18.7539 7.89062 19.832 7.89062ZM19.832 26.9336C20.918 26.9336 21.8672 26.8945 22.6797 26.8164C23.5 26.7383 24.2188 26.6094 24.8359 26.4297C25.4531 26.2578 26.0078 26.0273 26.5 25.7383C26.9922 25.457 27.4648 25.1055 27.918 24.6836C29.168 23.5508 30.1367 22.1953 30.8242 20.6172C31.5195 19.0391 31.8672 17.3789 31.8672 15.6367C31.8672 14.2539 31.6367 12.9102 31.1758 11.6055C30.7148 10.293 30.0195 9.07812 29.0898 7.96094C28.8086 7.60156 28.5156 7.40625 28.2109 7.375C27.9062 7.33594 27.5898 7.42578 27.2617 7.64453C26.668 8.07422 26.0195 8.43359 25.3164 8.72266C24.6133 9.00391 23.8125 9.21875 22.9141 9.36719C22.0234 9.50781 20.9961 9.57812 19.832 9.57812C18.6602 9.57812 17.625 9.50781 16.7266 9.36719C15.8359 9.21875 15.0391 9.00391 14.3359 8.72266C13.6328 8.43359 12.9844 8.07422 12.3906 7.64453C12.0703 7.42578 11.7578 7.33594 11.4531 7.375C11.1484 7.40625 10.8555 7.60156 10.5742 7.96094C9.63672 9.07812 8.9375 10.293 8.47656 11.6055C8.02344 12.9102 7.79688 14.2539 7.79688 15.6367C7.79688 17.3789 8.14062 19.0391 8.82812 20.6172C9.52344 22.1953 10.4961 23.5508 11.7461 24.6836C12.1914 25.1055 12.6602 25.457 13.1523 25.7383C13.6445 26.0273 14.1992 26.2578 14.8164 26.4297C15.4414 26.6094 16.1602 26.7383 16.9727 26.8164C17.7852 26.8945 18.7383 26.9336 19.832 26.9336Z" fill="white"/>
</svg>
