<svg width="30" height="23" viewBox="0 0 30 23" fill="none" xmlns="http://www.w3.org/2000/svg">
<path d="M4.86328 22.6016H25.1367C26.4336 22.6016 27.418 22.2656 28.0898 21.5938C28.7617 20.9297 29.0977 19.9531 29.0977 18.6641V4.4375C29.0977 3.15625 28.7617 2.18359 28.0898 1.51953C27.418 0.847656 26.4336 0.511719 25.1367 0.511719H4.86328C3.56641 0.511719 2.57812 0.847656 1.89844 1.51953C1.22656 2.18359 0.890625 3.15625 0.890625 4.4375V18.6641C0.890625 19.9531 1.22656 20.9297 1.89844 21.5938C2.57812 22.2656 3.56641 22.6016 4.86328 22.6016ZM5.08594 20C4.57031 20 4.17578 19.8711 3.90234 19.6133C3.63672 19.3477 3.50391 18.9453 3.50391 18.4062V4.70703C3.50391 4.16797 3.63672 3.76953 3.90234 3.51172C4.16797 3.24609 4.55859 3.11328 5.07422 3.11328H24.9141C25.4219 3.11328 25.8125 3.24609 26.0859 3.51172C26.3594 3.76953 26.4961 4.16797 26.4961 4.70703V18.4062C26.4961 18.9453 26.3594 19.3477 26.0859 19.6133C25.8125 19.8711 25.4219 20 24.9141 20H5.08594ZM10.4531 19.0391H19.5469C19.7188 19.0391 19.8594 18.9844 19.9688 18.875C20.0859 18.7656 20.1445 18.6211 20.1445 18.4414C20.1445 18.2617 20.0859 18.1172 19.9688 18.0078C19.8594 17.8906 19.7188 17.832 19.5469 17.832H10.4531C10.2812 17.832 10.1367 17.8906 10.0195 18.0078C9.91016 18.1172 9.85547 18.2617 9.85547 18.4414C9.85547 18.6211 9.91016 18.7656 10.0195 18.875C10.1367 18.9844 10.2812 19.0391 10.4531 19.0391Z" fill="white"/>
</svg>
