<svg width="18" height="27" viewBox="0 0 18 27" fill="none" xmlns="http://www.w3.org/2000/svg">
<path d="M4.24219 26.6523H13.8516C14.8828 26.6523 15.7109 26.3438 16.3359 25.7266C16.9609 25.1094 17.2734 24.293 17.2734 23.2773V3.76562C17.2734 2.75781 16.9609 1.94531 16.3359 1.32812C15.7109 0.710937 14.8828 0.402344 13.8516 0.402344H4.24219C3.19531 0.402344 2.34766 0.710937 1.69922 1.32812C1.05078 1.94531 0.726562 2.75781 0.726562 3.76562V23.2891C0.726562 24.2969 1.05078 25.1094 1.69922 25.7266C2.34766 26.3438 3.19531 26.6523 4.24219 26.6523ZM4.74609 23.9336C4.30078 23.9336 3.95312 23.8164 3.70312 23.582C3.46094 23.3477 3.33984 23.0156 3.33984 22.5859V4.46875C3.33984 4.03906 3.46094 3.70703 3.70312 3.47266C3.95312 3.23828 4.30078 3.12109 4.74609 3.12109H13.2656C13.7031 3.12109 14.043 3.23828 14.2852 3.47266C14.5352 3.70703 14.6602 4.03906 14.6602 4.46875V22.5859C14.6602 23.0078 14.5352 23.3359 14.2852 23.5703C14.043 23.8125 13.7031 23.9336 13.2656 23.9336H4.74609ZM6.44531 22.9727H11.5664C11.7461 22.9727 11.8945 22.9141 12.0117 22.7969C12.1289 22.6875 12.1875 22.5391 12.1875 22.3516C12.1875 22.1641 12.1289 22.0156 12.0117 21.9062C11.8945 21.7891 11.7461 21.7305 11.5664 21.7305H6.44531C6.26562 21.7305 6.11719 21.7891 6 21.9062C5.88281 22.0156 5.82422 22.1641 5.82422 22.3516C5.82422 22.5391 5.88281 22.6875 6 22.7969C6.11719 22.9141 6.26562 22.9727 6.44531 22.9727ZM7.48828 5.99219H10.5234C10.7891 5.99219 11.0117 5.90234 11.1914 5.72266C11.3789 5.53516 11.4727 5.30469 11.4727 5.03125C11.4727 4.76562 11.3789 4.54297 11.1914 4.36328C11.0117 4.17578 10.7891 4.08203 10.5234 4.08203H7.48828C7.21484 4.08203 6.98438 4.17578 6.79688 4.36328C6.61719 4.54297 6.52734 4.76562 6.52734 5.03125C6.52734 5.30469 6.61719 5.53516 6.79688 5.72266C6.98438 5.90234 7.21484 5.99219 7.48828 5.99219Z" fill="white"/>
</svg>
