<svg width="24" height="29" viewBox="0 0 24 29" fill="none" xmlns="http://www.w3.org/2000/svg">
<path d="M13.4531 15.2188L22.793 5.89062C23.0586 5.63281 23.1953 5.35938 23.2031 5.07031C23.2109 4.78125 23.1094 4.51562 22.8984 4.27344C22.6953 4.03125 22.4062 3.85156 22.0312 3.73438C21.2969 3.5 20.5234 3.32031 19.7109 3.19531C18.9062 3.0625 18.0469 2.98438 17.1328 2.96094C16.2266 2.92969 15.25 2.94531 14.2031 3.00781L13.5938 2.36328C13.0703 1.80859 12.4648 1.53125 11.7773 1.53125C11.0898 1.52344 10.4648 1.79297 9.90234 2.33984C9.53516 2.70703 9.28906 3.11719 9.16406 3.57031C9.03906 4.01562 9.03906 4.45703 9.16406 4.89453C9.28906 5.32422 9.54297 5.71094 9.92578 6.05469L10.5469 6.62891C10.4844 7.66797 10.4648 8.64453 10.4883 9.55859C10.5195 10.4648 10.5977 11.3242 10.7227 12.1367C10.8477 12.9414 11.0273 13.7188 11.2617 14.4688C11.4492 15.0391 11.7578 15.4102 12.1875 15.582C12.625 15.7539 13.0469 15.6328 13.4531 15.2188ZM10.582 4.55469L12.1055 3.01953L9.80859 0.746094C9.58984 0.535156 9.33203 0.429688 9.03516 0.429688C8.74609 0.429688 8.49609 0.535156 8.28516 0.746094C8.08203 0.949219 7.97656 1.19922 7.96875 1.49609C7.96875 1.79297 8.07422 2.04688 8.28516 2.25781L10.582 4.55469ZM18.7969 14.5859C19.4062 14.5859 19.9609 14.4336 20.4609 14.1289C20.9688 13.8242 21.3711 13.4219 21.668 12.9219C21.9727 12.4219 22.125 11.8711 22.125 11.2695C22.125 10.4727 21.8672 9.77344 21.3516 9.17188L16.6992 13.8242C16.9961 14.0742 17.3242 14.2656 17.6836 14.3984C18.043 14.5234 18.4141 14.5859 18.7969 14.5859ZM3.26953 17.0234L12.0352 8.97266L10.875 6.93359L1.71094 15.3594L3.26953 17.0234ZM2.87109 17.8906C3.44922 17.8906 3.9375 17.6914 4.33594 17.293C4.74219 16.8867 4.94531 16.3945 4.94531 15.8164C4.94531 15.2383 4.74219 14.75 4.33594 14.3516C3.92969 13.9453 3.44141 13.7422 2.87109 13.7422C2.28516 13.7422 1.79297 13.9453 1.39453 14.3516C0.996094 14.75 0.796875 15.2383 0.796875 15.8164C0.796875 16.3945 0.996094 16.8867 1.39453 17.293C1.79297 17.6914 2.28516 17.8906 2.87109 17.8906ZM7.73438 22.168L9.35156 20.5508L3.14062 14.3633L1.52344 15.9805L7.73438 22.168ZM8.09766 23.3984C8.67578 23.3984 9.16406 23.1992 9.5625 22.8008C9.96875 22.4023 10.1719 21.9102 10.1719 21.3242C10.1719 20.7461 9.96875 20.2578 9.5625 19.8594C9.16406 19.4531 8.67578 19.25 8.09766 19.25C7.51172 19.25 7.01953 19.4531 6.62109 19.8594C6.22266 20.2578 6.02344 20.7461 6.02344 21.3242C6.02344 21.9102 6.22266 22.4023 6.62109 22.8008C7.01953 23.1992 7.51172 23.3984 8.09766 23.3984ZM6.94922 27.0664H9.23438V21.2305H6.94922V27.0664ZM2.20312 28.9062H15.3164C15.6055 28.9062 15.832 28.8047 15.9961 28.6016C16.1602 28.4062 16.2422 28.1562 16.2422 27.8516C16.2422 27.3516 16.043 26.9453 15.6445 26.6328C15.2461 26.3203 14.7383 26.1641 14.1211 26.1641H3.41016C2.79297 26.1641 2.28516 26.3203 1.88672 26.6328C1.48828 26.9453 1.28906 27.3516 1.28906 27.8516C1.28906 28.1562 1.37109 28.4062 1.53516 28.6016C1.69922 28.8047 1.92188 28.9062 2.20312 28.9062Z" fill="white"/>
</svg>
