<svg width="36" height="21" viewBox="0 0 36 21" fill="none" xmlns="http://www.w3.org/2000/svg">
<path d="M0.480469 18.9297C0.480469 19.375 0.636719 19.7539 0.949219 20.0664C1.26953 20.3867 1.64844 20.5469 2.08594 20.5469H33.9023C34.3477 20.5469 34.7266 20.3867 35.0391 20.0664C35.3594 19.7539 35.5195 19.375 35.5195 18.9297C35.5195 18.4922 35.3594 18.1172 35.0391 17.8047C34.7266 17.4844 34.3477 17.3242 33.9023 17.3242H31.4883V3.56641C31.4883 2.58984 31.2266 1.84375 30.7031 1.32812C30.1797 0.8125 29.4297 0.554688 28.4531 0.554688H7.54688C6.60156 0.554688 5.85547 0.8125 5.30859 1.32812C4.76953 1.84375 4.5 2.58984 4.5 3.56641V17.3242H2.08594C1.64844 17.3242 1.26953 17.4844 0.949219 17.8047C0.636719 18.1172 0.480469 18.4922 0.480469 18.9297ZM7.11328 17.3242V4.22266C7.11328 3.86328 7.20312 3.59766 7.38281 3.42578C7.5625 3.24609 7.82812 3.15625 8.17969 3.15625H27.8203C28.1719 3.15625 28.4375 3.24609 28.6172 3.42578C28.7969 3.59766 28.8867 3.86328 28.8867 4.22266V17.3242H7.11328Z" fill="white"/>
</svg>
