<svg width="30" height="21" viewBox="0 0 30 21" fill="none" xmlns="http://www.w3.org/2000/svg">
<path d="M3.58594 20.1836H26.4141C27.3281 20.1836 28.0664 19.8984 28.6289 19.3281C29.1992 18.7578 29.4844 18.0117 29.4844 17.0898V4.01172C29.4844 3.08984 29.1992 2.34766 28.6289 1.78516C28.0664 1.21484 27.3281 0.929688 26.4141 0.929688H3.58594C2.67188 0.929688 1.92969 1.21484 1.35938 1.78516C0.796875 2.34766 0.515625 3.08984 0.515625 4.01172V17.0898C0.515625 18.0117 0.796875 18.7578 1.35938 19.3281C1.92969 19.8984 2.67188 20.1836 3.58594 20.1836ZM3.76172 17.6992C3.53516 17.6992 3.35156 17.625 3.21094 17.4766C3.07031 17.3281 3 17.1328 3 16.8906V4.21094C3 3.96875 3.07031 3.77344 3.21094 3.625C3.35156 3.47656 3.53516 3.40234 3.76172 3.40234H26.2734C26.5 3.40234 26.6758 3.47266 26.8008 3.61328C26.9336 3.75391 27 3.9375 27 4.16406V16.9375C27 17.1641 26.9336 17.3477 26.8008 17.4883C26.6758 17.6289 26.5 17.6992 26.2734 17.6992H3.76172ZM5.47266 16.1992H16.7461C17.0664 16.1992 17.3203 16.1055 17.5078 15.918C17.7031 15.7227 17.8008 15.4648 17.8008 15.1445V5.95703C17.8008 5.63672 17.7031 5.38281 17.5078 5.19531C17.3203 5 17.0664 4.90234 16.7461 4.90234H5.47266C5.14453 4.90234 4.88281 5 4.6875 5.19531C4.5 5.38281 4.40625 5.63672 4.40625 5.95703V15.1445C4.40625 15.4648 4.5 15.7227 4.6875 15.918C4.88281 16.1055 5.14453 16.1992 5.47266 16.1992ZM6.26953 14.6172C6.08203 14.6172 5.98828 14.5234 5.98828 14.3359V6.76562C5.98828 6.57812 6.08203 6.48438 6.26953 6.48438H15.9375C16.125 6.48438 16.2188 6.57812 16.2188 6.76562V14.3359C16.2188 14.5234 16.125 14.6172 15.9375 14.6172H6.26953ZM19.3008 18.4023H20.9297V2.6875H19.3008V18.4023ZM20.1562 14.9922H27.8672V13.375H20.1562V14.9922ZM22.2656 7.16406H25.5352C25.6211 7.16406 25.6914 7.13672 25.7461 7.08203C25.8086 7.01953 25.8398 6.94922 25.8398 6.87109V5.20703C25.8398 5.12109 25.8086 5.05078 25.7461 4.99609C25.6914 4.93359 25.6211 4.90234 25.5352 4.90234H22.2656C22.1875 4.90234 22.1172 4.93359 22.0547 4.99609C21.9922 5.05078 21.9609 5.12109 21.9609 5.20703V6.87109C21.9609 6.94922 21.9922 7.01953 22.0547 7.08203C22.1172 7.13672 22.1875 7.16406 22.2656 7.16406ZM22.6523 9.23828H25.1484C25.3516 9.23828 25.5156 9.17578 25.6406 9.05078C25.7734 8.91797 25.8398 8.75391 25.8398 8.55859C25.8398 8.35547 25.7734 8.19141 25.6406 8.06641C25.5156 7.93359 25.3516 7.86719 25.1484 7.86719H22.6523C22.4492 7.86719 22.2812 7.93359 22.1484 8.06641C22.0234 8.19141 21.9609 8.35547 21.9609 8.55859C21.9609 8.75391 22.0234 8.91797 22.1484 9.05078C22.2812 9.17578 22.4492 9.23828 22.6523 9.23828ZM22.6523 11.3242H25.1484C25.3516 11.3242 25.5156 11.2617 25.6406 11.1367C25.7734 11.0117 25.8398 10.8477 25.8398 10.6445C25.8398 10.4414 25.7734 10.2773 25.6406 10.1523C25.5156 10.0273 25.3516 9.96484 25.1484 9.96484H22.6523C22.4492 9.96484 22.2812 10.0273 22.1484 10.1523C22.0234 10.2773 21.9609 10.4414 21.9609 10.6445C21.9609 10.8477 22.0234 11.0117 22.1484 11.1367C22.2812 11.2617 22.4492 11.3242 22.6523 11.3242Z" fill="white"/>
</svg>
