<svg width="26" height="25" viewBox="0 0 26 25" fill="none" xmlns="http://www.w3.org/2000/svg">
<path d="M13 18.7734C13.8516 18.7734 14.6523 18.6133 15.4023 18.293C16.1602 17.9648 16.8242 17.5156 17.3945 16.9453C17.9727 16.3672 18.4258 15.7031 18.7539 14.9531C19.082 14.1953 19.2461 13.3906 19.2461 12.5391C19.2461 11.6797 19.082 10.875 18.7539 10.125C18.4258 9.375 17.9727 8.71484 17.3945 8.14453C16.8242 7.56641 16.1602 7.11328 15.4023 6.78516C14.6523 6.45703 13.8516 6.29297 13 6.29297C12.1484 6.29297 11.3438 6.45703 10.5859 6.78516C9.83594 7.11328 9.17188 7.56641 8.59375 8.14453C8.02344 8.71484 7.57422 9.375 7.24609 10.125C6.92578 10.875 6.76562 11.6797 6.76562 12.5391C6.76562 13.3906 6.92578 14.1953 7.24609 14.9531C7.57422 15.7031 8.02344 16.3672 8.59375 16.9453C9.17188 17.5156 9.83594 17.9648 10.5859 18.293C11.3438 18.6133 12.1484 18.7734 13 18.7734ZM13 16.3242C12.3047 16.3242 11.6719 16.1523 11.1016 15.8086C10.5312 15.4648 10.0742 15.0078 9.73047 14.4375C9.38672 13.8672 9.21484 13.2344 9.21484 12.5391C9.21484 11.8516 9.38672 11.2227 9.73047 10.6523C10.0742 10.0742 10.5312 9.61328 11.1016 9.26953C11.6719 8.91797 12.3047 8.74219 13 8.74219C13.6875 8.74219 14.3164 8.91797 14.8867 9.26953C15.4648 9.61328 15.9258 10.0703 16.2695 10.6406C16.6211 11.2109 16.7969 11.8438 16.7969 12.5391C16.7969 13.2344 16.6211 13.8672 16.2695 14.4375C15.9258 15.0078 15.4648 15.4648 14.8867 15.8086C14.3164 16.1523 13.6875 16.3242 13 16.3242ZM2.44141 14.0625C2.86328 14.0625 3.22266 13.9141 3.51953 13.6172C3.81641 13.3203 3.96484 12.9609 3.96484 12.5391C3.96484 12.1172 3.81641 11.7578 3.51953 11.4609C3.22266 11.1641 2.86328 11.0156 2.44141 11.0156C2.01953 11.0156 1.66016 11.1641 1.36328 11.4609C1.06641 11.7578 0.917969 12.1172 0.917969 12.5391C0.917969 12.9609 1.06641 13.3203 1.36328 13.6172C1.66016 13.9141 2.01953 14.0625 2.44141 14.0625ZM5.52344 6.59766C5.94531 6.59766 6.30469 6.44922 6.60156 6.15234C6.89844 5.84766 7.04688 5.48828 7.04688 5.07422C7.04688 4.65234 6.89844 4.29297 6.60156 3.99609C6.30469 3.69922 5.94531 3.55078 5.52344 3.55078C5.10938 3.55078 4.75 3.69922 4.44531 3.99609C4.14844 4.29297 4 4.65234 4 5.07422C4 5.48828 4.14844 5.84766 4.44531 6.15234C4.75 6.44922 5.10938 6.59766 5.52344 6.59766ZM13 3.50391C13.4219 3.50391 13.7812 3.35547 14.0781 3.05859C14.375 2.76172 14.5234 2.40234 14.5234 1.98047C14.5234 1.55859 14.375 1.19922 14.0781 0.902344C13.7812 0.605469 13.4219 0.457031 13 0.457031C12.5781 0.457031 12.2188 0.605469 11.9219 0.902344C11.625 1.19922 11.4766 1.55859 11.4766 1.98047C11.4766 2.40234 11.625 2.76172 11.9219 3.05859C12.2188 3.35547 12.5781 3.50391 13 3.50391ZM20.4648 6.59766C20.8867 6.59766 21.2461 6.44922 21.543 6.15234C21.8398 5.84766 21.9883 5.48828 21.9883 5.07422C21.9883 4.65234 21.8398 4.29297 21.543 3.99609C21.2461 3.69922 20.8867 3.55078 20.4648 3.55078C20.0508 3.55078 19.6914 3.69922 19.3867 3.99609C19.0898 4.29297 18.9414 4.65234 18.9414 5.07422C18.9414 5.48828 19.0898 5.84766 19.3867 6.15234C19.6914 6.44922 20.0508 6.59766 20.4648 6.59766ZM23.5586 14.0625C23.9727 14.0625 24.3281 13.9141 24.625 13.6172C24.9297 13.3203 25.082 12.9609 25.082 12.5391C25.082 12.1172 24.9297 11.7578 24.625 11.4609C24.3281 11.1641 23.9727 11.0156 23.5586 11.0156C23.1367 11.0156 22.7773 11.1641 22.4805 11.4609C22.1836 11.7578 22.0352 12.1172 22.0352 12.5391C22.0352 12.9609 22.1836 13.3203 22.4805 13.6172C22.7773 13.9141 23.1367 14.0625 23.5586 14.0625ZM20.4648 21.5273C20.8867 21.5273 21.2461 21.3789 21.543 21.082C21.8398 20.7852 21.9883 20.4258 21.9883 20.0039C21.9883 19.5898 21.8398 19.2344 21.543 18.9375C21.2461 18.6328 20.8867 18.4805 20.4648 18.4805C20.0508 18.4805 19.6914 18.6328 19.3867 18.9375C19.0898 19.2344 18.9414 19.5898 18.9414 20.0039C18.9414 20.4258 19.0898 20.7852 19.3867 21.082C19.6914 21.3789 20.0508 21.5273 20.4648 21.5273ZM13 24.6211C13.4219 24.6211 13.7812 24.4727 14.0781 24.1758C14.375 23.8789 14.5234 23.5195 14.5234 23.0977C14.5234 22.6758 14.375 22.3164 14.0781 22.0195C13.7812 21.7227 13.4219 21.5742 13 21.5742C12.5781 21.5742 12.2188 21.7227 11.9219 22.0195C11.625 22.3164 11.4766 22.6758 11.4766 23.0977C11.4766 23.5195 11.625 23.8789 11.9219 24.1758C12.2188 24.4727 12.5781 24.6211 13 24.6211ZM5.52344 21.5273C5.94531 21.5273 6.30469 21.3789 6.60156 21.082C6.89844 20.7852 7.04688 20.4258 7.04688 20.0039C7.04688 19.5898 6.89844 19.2344 6.60156 18.9375C6.30469 18.6328 5.94531 18.4805 5.52344 18.4805C5.10938 18.4805 4.75 18.6328 4.44531 18.9375C4.14844 19.2344 4 19.5898 4 20.0039C4 20.4258 4.14844 20.7852 4.44531 21.082C4.75 21.3789 5.10938 21.5273 5.52344 21.5273Z" fill="white"/>
</svg>
