<svg width="24" height="25" viewBox="0 0 24 25" fill="none" xmlns="http://www.w3.org/2000/svg">
<path d="M18.4102 16.125C16.3945 16.125 14.6523 15.7422 13.1836 14.9766C11.7148 14.2031 10.582 13.1094 9.78516 11.6953C8.99609 10.2812 8.60156 8.59375 8.60156 6.63281C8.60156 5.8125 8.66406 5.05078 8.78906 4.34766C8.91406 3.63672 9.08594 3.07422 9.30469 2.66016C9.40625 2.45703 9.48047 2.28125 9.52734 2.13281C9.57422 1.97656 9.59766 1.82031 9.59766 1.66406C9.59766 1.375 9.49219 1.11719 9.28125 0.890625C9.07031 0.664062 8.79688 0.550781 8.46094 0.550781C8.36719 0.550781 8.24609 0.566406 8.09766 0.597656C7.95703 0.628906 7.78906 0.683594 7.59375 0.761719C6.10938 1.36328 4.80469 2.24219 3.67969 3.39844C2.55469 4.54688 1.67188 5.875 1.03125 7.38281C0.398438 8.89062 0.0820312 10.4727 0.0820312 12.1289C0.0820312 13.918 0.386719 15.5664 0.996094 17.0742C1.60547 18.5742 2.46484 19.8789 3.57422 20.9883C4.68359 22.0977 5.98828 22.957 7.48828 23.5664C8.99609 24.1836 10.6445 24.4922 12.4336 24.4922C14.1211 24.4922 15.6953 24.2031 17.1562 23.625C18.625 23.0469 19.918 22.2188 21.0352 21.1406C22.1523 20.0703 23.0312 18.793 23.6719 17.3086C23.7656 17.1133 23.8281 16.9336 23.8594 16.7695C23.8906 16.6055 23.9062 16.4688 23.9062 16.3594C23.9062 16.0312 23.8008 15.7734 23.5898 15.5859C23.3867 15.3906 23.1484 15.293 22.875 15.293C22.7344 15.293 22.5898 15.3086 22.4414 15.3398C22.3008 15.3711 22.1328 15.4297 21.9375 15.5156C21.6484 15.6406 21.3125 15.75 20.9297 15.8438C20.5469 15.9297 20.1406 16 19.7109 16.0547C19.2812 16.1016 18.8477 16.125 18.4102 16.125ZM2.64844 12.0703C2.64844 11.0391 2.80859 10.0312 3.12891 9.04688C3.45703 8.05469 3.91797 7.14062 4.51172 6.30469C5.11328 5.46094 5.82422 4.74609 6.64453 4.16016C6.51172 4.58203 6.41016 5.03125 6.33984 5.50781C6.26953 5.97656 6.23438 6.46875 6.23438 6.98438C6.23438 9.35938 6.69922 11.4062 7.62891 13.125C8.56641 14.8359 9.91016 16.1523 11.6602 17.0742C13.418 17.9883 15.5117 18.4453 17.9414 18.4453C18.3789 18.4453 18.7891 18.4219 19.1719 18.375C19.5547 18.3203 19.9219 18.2305 20.2734 18.1055C19.7266 18.9023 19.0469 19.5898 18.2344 20.168C17.4219 20.7383 16.5234 21.1719 15.5391 21.4688C14.5625 21.7734 13.543 21.9258 12.4805 21.9258C11.0664 21.9258 9.75781 21.6836 8.55469 21.1992C7.35938 20.7148 6.32031 20.0312 5.4375 19.1484C4.55469 18.2578 3.86719 17.2148 3.375 16.0195C2.89062 14.8164 2.64844 13.5 2.64844 12.0703Z" fill="white"/>
</svg>
