<svg width="26" height="23" viewBox="0 0 26 23" fill="none" xmlns="http://www.w3.org/2000/svg">
<path d="M3.39062 22.332H22.5977C23.5117 22.332 24.25 22.0469 24.8125 21.4766C25.3828 20.9062 25.668 20.1641 25.668 19.25V3.81641C25.668 2.90234 25.3828 2.16016 24.8125 1.58984C24.25 1.01953 23.5117 0.734375 22.5977 0.734375H3.39062C2.47656 0.734375 1.73438 1.01953 1.16406 1.58984C0.601562 2.16016 0.320312 2.90234 0.320312 3.81641V19.25C0.320312 20.1641 0.601562 20.9062 1.16406 21.4766C1.73438 22.0469 2.47656 22.332 3.39062 22.332ZM3.56641 19.8594C3.33984 19.8594 3.15625 19.7852 3.01562 19.6367C2.875 19.4883 2.80469 19.2891 2.80469 19.0391V4.02734C2.80469 3.77734 2.875 3.57812 3.01562 3.42969C3.15625 3.28125 3.33984 3.20703 3.56641 3.20703H22.4688C22.6875 3.20703 22.8594 3.27734 22.9844 3.41797C23.1172 3.55859 23.1836 3.74609 23.1836 3.98047V19.0859C23.1836 19.3203 23.1172 19.5078 22.9844 19.6484C22.8594 19.7891 22.6875 19.8594 22.4688 19.8594H3.56641ZM5.99219 6.38281C6.29688 6.38281 6.5625 6.27344 6.78906 6.05469C7.01562 5.83594 7.12891 5.56641 7.12891 5.24609C7.12891 4.93359 7.01562 4.66797 6.78906 4.44922C6.5625 4.22266 6.29688 4.10938 5.99219 4.10938C5.67188 4.10938 5.39844 4.22266 5.17188 4.44922C4.95312 4.66797 4.84375 4.93359 4.84375 5.24609C4.84375 5.56641 4.95312 5.83594 5.17188 6.05469C5.39844 6.27344 5.67188 6.38281 5.99219 6.38281ZM9.10938 6.38281C9.42969 6.38281 9.69922 6.27344 9.91797 6.05469C10.1445 5.83594 10.2578 5.56641 10.2578 5.24609C10.2578 4.93359 10.1445 4.66797 9.91797 4.44922C9.69922 4.22266 9.42969 4.10938 9.10938 4.10938C8.79688 4.10938 8.52734 4.22266 8.30078 4.44922C8.08203 4.66797 7.97266 4.93359 7.97266 5.24609C7.97266 5.56641 8.08203 5.83594 8.30078 6.05469C8.52734 6.27344 8.79688 6.38281 9.10938 6.38281ZM12.2383 6.38281C12.5508 6.38281 12.8164 6.27344 13.0352 6.05469C13.2617 5.83594 13.375 5.56641 13.375 5.24609C13.375 4.93359 13.2617 4.66797 13.0352 4.44922C12.8164 4.22266 12.5508 4.10938 12.2383 4.10938C11.9258 4.10938 11.6562 4.22266 11.4297 4.44922C11.2109 4.66797 11.1016 4.93359 11.1016 5.24609C11.1016 5.56641 11.2109 5.83594 11.4297 6.05469C11.6562 6.27344 11.9258 6.38281 12.2383 6.38281ZM17.4531 6.00781H20.5469C20.7578 6.00781 20.9336 5.9375 21.0742 5.79688C21.2148 5.64844 21.2852 5.46484 21.2852 5.24609C21.2852 5.03516 21.2148 4.85938 21.0742 4.71875C20.9336 4.57812 20.7578 4.50781 20.5469 4.50781H17.4531C17.2422 4.50781 17.0625 4.57812 16.9141 4.71875C16.7734 4.85938 16.7031 5.03516 16.7031 5.24609C16.7031 5.46484 16.7734 5.64844 16.9141 5.79688C17.0625 5.9375 17.2422 6.00781 17.4531 6.00781ZM1.99609 8.98438H24.0039V7.19141H1.99609V8.98438ZM5.73438 18.4648H20.2656C20.6016 18.4648 20.8672 18.3672 21.0625 18.1719C21.2578 17.9688 21.3555 17.707 21.3555 17.3867V11.293C21.3555 10.957 21.2578 10.6914 21.0625 10.4961C20.8672 10.3008 20.6016 10.2031 20.2656 10.2031H5.73438C5.39844 10.2031 5.12891 10.3008 4.92578 10.4961C4.73047 10.6914 4.63281 10.957 4.63281 11.293V17.3867C4.63281 17.707 4.73047 17.9688 4.92578 18.1719C5.12891 18.3672 5.39844 18.4648 5.73438 18.4648ZM6.46094 16.9297C6.27344 16.9297 6.17969 16.8359 6.17969 16.6484V11.9844C6.17969 11.7891 6.27344 11.6914 6.46094 11.6914H19.5391C19.7188 11.6914 19.8086 11.7891 19.8086 11.9844V16.6484C19.8086 16.8359 19.7188 16.9297 19.5391 16.9297H6.46094ZM5.78125 14.1172H20.2305V12.793H5.78125V14.1172Z" fill="white"/>
</svg>
