<svg width="18" height="29" viewBox="0 0 18 29" fill="none" xmlns="http://www.w3.org/2000/svg">
<path d="M4.82812 28.6875C5.36719 28.6875 5.78906 28.543 6.09375 28.2539C6.39844 27.9648 6.55078 27.5664 6.55078 27.0586L6.30469 13.6875C6.30469 13.4297 6.34766 13.2266 6.43359 13.0781C6.51953 12.9297 6.66406 12.8086 6.86719 12.7148C7.41406 12.4648 7.85938 12.1953 8.20312 11.9062C8.54688 11.6094 8.79297 11.2305 8.94141 10.7695C9.09766 10.3008 9.16016 9.69141 9.12891 8.94141L8.78906 1.76953C8.75781 1.16016 8.45703 0.855469 7.88672 0.855469C7.62891 0.855469 7.42578 0.9375 7.27734 1.10156C7.12891 1.26562 7.05859 1.49609 7.06641 1.79297L7.14844 8.74219C7.14844 8.96875 7.08984 9.14453 6.97266 9.26953C6.85547 9.38672 6.69922 9.44531 6.50391 9.44531C6.30078 9.44531 6.13672 9.38672 6.01172 9.26953C5.89453 9.15234 5.83594 8.98828 5.83594 8.77734L5.70703 1.57031C5.69922 1.28906 5.61719 1.06641 5.46094 0.902344C5.3125 0.738281 5.10156 0.65625 4.82812 0.65625C4.57031 0.65625 4.36328 0.738281 4.20703 0.902344C4.05078 1.06641 3.96875 1.28906 3.96094 1.57031L3.84375 8.77734C3.84375 8.98047 3.78125 9.14453 3.65625 9.26953C3.53125 9.38672 3.36719 9.44531 3.16406 9.44531C2.72656 9.44531 2.50781 9.21094 2.50781 8.74219L2.60156 1.79297C2.60938 1.49609 2.53906 1.26562 2.39062 1.10156C2.25 0.9375 2.04688 0.855469 1.78125 0.855469C1.50781 0.855469 1.29297 0.9375 1.13672 1.10156C0.980469 1.25781 0.894531 1.48047 0.878906 1.76953L0.539062 8.94141C0.5 9.69141 0.558594 10.3008 0.714844 10.7695C0.871094 11.2305 1.12109 11.6094 1.46484 11.9062C1.80859 12.1953 2.25391 12.4648 2.80078 12.7148C3.01172 12.8086 3.15625 12.9297 3.23438 13.0781C3.32031 13.2266 3.36328 13.4297 3.36328 13.6875L3.12891 27.0586C3.11328 27.5664 3.25781 27.9648 3.5625 28.2539C3.875 28.543 4.29688 28.6875 4.82812 28.6875ZM14.2617 18.1992L14.0391 27.0117C14.0312 27.543 14.1836 27.9531 14.4961 28.2422C14.8086 28.5391 15.2266 28.6875 15.75 28.6875C16.2891 28.6875 16.7109 28.5469 17.0156 28.2656C17.3281 27.9922 17.4844 27.6055 17.4844 27.1055V1.59375C17.4844 1.29688 17.3945 1.06641 17.2148 0.902344C17.043 0.738281 16.832 0.65625 16.582 0.65625C16.3477 0.65625 16.1445 0.722656 15.9727 0.855469C15.8008 0.988281 15.6133 1.19141 15.4102 1.46484C14.9336 2.14453 14.4922 2.96484 14.0859 3.92578C13.6875 4.88672 13.3398 5.9375 13.043 7.07812C12.7461 8.21875 12.5156 9.39453 12.3516 10.6055C12.1953 11.8086 12.1172 12.9922 12.1172 14.1562V14.8242C12.1172 15.2539 12.1914 15.6211 12.3398 15.9258C12.4961 16.2305 12.75 16.5 13.1016 16.7344L13.6758 17.1211C13.8867 17.2695 14.0391 17.4258 14.1328 17.5898C14.2266 17.7539 14.2695 17.957 14.2617 18.1992Z" fill="white"/>
</svg>
