<svg width="20" height="33" viewBox="0 0 20 33" fill="none" xmlns="http://www.w3.org/2000/svg">
<path d="M3.74219 30.6016H16.2461C17.2773 30.6016 18.1133 30.2734 18.7539 29.6172C19.4023 28.9609 19.7266 28.1211 19.7266 27.0977V10.3516C19.7266 9.32031 19.4023 8.48047 18.7539 7.83203C18.1133 7.17578 17.2773 6.84766 16.2461 6.84766H3.74219C2.71875 6.84766 1.88281 7.17578 1.23438 7.83203C0.585938 8.48047 0.261719 9.32031 0.261719 10.3516V27.0977C0.261719 28.1211 0.585938 28.9609 1.23438 29.6172C1.88281 30.2734 2.71875 30.6016 3.74219 30.6016ZM0.261719 25.6328V23.2891H19.7266V25.6328H0.261719ZM4.51562 8.11328H6.87109V3.37891C6.87109 3.08984 6.95703 2.86719 7.12891 2.71094C7.30859 2.54688 7.54688 2.46484 7.84375 2.46484H12.2383C12.5117 2.46484 12.7266 2.54688 12.8828 2.71094C13.0469 2.86719 13.1289 3.08984 13.1289 3.37891V8.10156H15.4844V3.20312C15.4844 2.29688 15.2148 1.58984 14.6758 1.08203C14.1445 0.566406 13.4023 0.308594 12.4492 0.308594H7.62109C6.64453 0.308594 5.88281 0.566406 5.33594 1.08203C4.78906 1.58984 4.51562 2.29688 4.51562 3.20312V8.11328ZM4.59766 32.4062H5.35938C5.67969 32.4062 5.9375 32.3086 6.13281 32.1133C6.33594 31.918 6.4375 31.6562 6.4375 31.3281V29.2305H3.50781V31.3281C3.50781 31.6562 3.60547 31.918 3.80078 32.1133C4.00391 32.3086 4.26953 32.4062 4.59766 32.4062ZM14.6406 32.4062H15.4023C15.7227 32.4062 15.9844 32.3086 16.1875 32.1133C16.3906 31.918 16.4922 31.6562 16.4922 31.3281V29.2305H13.5508V31.3281C13.5508 31.6562 13.6484 31.918 13.8438 32.1133C14.0469 32.3086 14.3125 32.4062 14.6406 32.4062Z" fill="white"/>
</svg>
