<svg width="32" height="32" viewBox="0 0 32 32" fill="none" xmlns="http://www.w3.org/2000/svg">
<path d="M13.1055 24.5625C13.543 24.5625 14.0078 24.5234 14.5 24.4453C14.9922 24.375 15.4883 24.25 15.9883 24.0703C16.4961 24.25 16.9961 24.375 17.4883 24.4453C17.9805 24.5234 18.4453 24.5625 18.8828 24.5625C19.6719 24.5625 20.3906 24.4688 21.0391 24.2812C21.6875 24.0938 22.2422 23.8711 22.7031 23.6133C23.1719 23.3555 23.5312 23.1289 23.7812 22.9336C24.2578 23.1602 24.7266 23.3281 25.1875 23.4375C25.6484 23.5469 26.0898 23.6016 26.5117 23.6016C27.4648 23.6016 28.3008 23.3906 29.0195 22.9688C29.7461 22.5469 30.3164 21.9648 30.7305 21.2227C31.1445 20.4727 31.3516 19.6094 31.3516 18.6328C31.3516 17.9219 31.2031 17.2031 30.9062 16.4766C30.6094 15.7422 30.1445 15.0391 29.5117 14.3672C30.0117 13.8125 30.3711 13.2188 30.5898 12.5859C30.8086 11.9453 30.918 11.3086 30.918 10.6758C30.918 9.73828 30.7031 8.84766 30.2734 8.00391C29.8516 7.16016 29.2734 6.45312 28.5391 5.88281C27.8125 5.30469 27 4.94531 26.1016 4.80469C26.0312 4.125 25.8086 3.50391 25.4336 2.94141C25.0586 2.37109 24.5742 1.88281 23.9805 1.47656C23.3945 1.0625 22.7461 0.742187 22.0352 0.515625C21.332 0.289063 20.6211 0.175781 19.9023 0.175781C19.168 0.175781 18.4648 0.296875 17.793 0.539062C17.1211 0.773438 16.5195 1.14453 15.9883 1.65234C15.4648 1.14453 14.8672 0.773438 14.1953 0.539062C13.5234 0.296875 12.8203 0.175781 12.0859 0.175781C11.3672 0.175781 10.6523 0.289063 9.94141 0.515625C9.23828 0.742187 8.59375 1.0625 8.00781 1.47656C7.42188 1.88281 6.9375 2.37109 6.55469 2.94141C6.17969 3.50391 5.96094 4.125 5.89844 4.80469C4.99219 4.94531 4.17188 5.30469 3.4375 5.88281C2.71094 6.45312 2.13281 7.16016 1.70312 8.00391C1.27344 8.84766 1.05859 9.73828 1.05859 10.6758C1.05859 11.3086 1.16797 11.9453 1.38672 12.5859C1.61328 13.2188 1.97656 13.8125 2.47656 14.3672C1.84375 15.0391 1.37891 15.7422 1.08203 16.4766C0.785156 17.2031 0.636719 17.9219 0.636719 18.6328C0.636719 19.6094 0.839844 20.4727 1.24609 21.2227C1.66016 21.9648 2.23047 22.5469 2.95703 22.9688C3.68359 23.3906 4.51953 23.6016 5.46484 23.6016C5.89453 23.6016 6.33594 23.5469 6.78906 23.4375C7.25 23.3281 7.72266 23.1602 8.20703 22.9336C8.45703 23.1289 8.8125 23.3555 9.27344 23.6133C9.74219 23.8711 10.3008 24.0938 10.9492 24.2812C11.5977 24.4688 12.3164 24.5625 13.1055 24.5625ZM13.1055 22.3828C12.2852 22.3828 11.5781 22.2656 10.9844 22.0312C10.3984 21.7969 9.90625 21.5156 9.50781 21.1875C9.10938 20.8516 8.78906 20.5352 8.54688 20.2383C8 20.6602 7.51172 20.9492 7.08203 21.1055C6.66016 21.2539 6.19531 21.3281 5.6875 21.3281C4.86719 21.3281 4.19922 21.0703 3.68359 20.5547C3.17578 20.0391 2.92188 19.3633 2.92188 18.5273C2.92188 17.9727 3.05469 17.4375 3.32031 16.9219C3.59375 16.3984 4.09375 15.8047 4.82031 15.1406C5.05469 14.9297 5.16406 14.6758 5.14844 14.3789C5.14062 14.082 5.04297 13.8398 4.85547 13.6523C4.24609 13.0508 3.83594 12.5039 3.625 12.0117C3.41406 11.5117 3.30859 10.9961 3.30859 10.4648C3.30859 9.77734 3.47656 9.16016 3.8125 8.61328C4.14844 8.05859 4.61719 7.62891 5.21875 7.32422C5.82031 7.01953 6.52344 6.88672 7.32812 6.92578C7.625 6.94141 7.82422 6.87891 7.92578 6.73828C8.02734 6.58984 8.07031 6.44531 8.05469 6.30469C7.97656 5.53906 8.10938 4.85938 8.45312 4.26562C8.80469 3.67188 9.3125 3.21094 9.97656 2.88281C10.6484 2.54687 11.4102 2.37891 12.2617 2.37891C13.0352 2.37891 13.7227 2.52344 14.3242 2.8125C14.9336 3.09375 15.4883 3.5 15.9883 4.03125C16.4961 3.5 17.0547 3.09375 17.6641 2.8125C18.2734 2.52344 18.9609 2.37891 19.7266 2.37891C20.5781 2.37891 21.3359 2.54687 22 2.88281C22.6719 3.21094 23.1797 3.67188 23.5234 4.26562C23.875 4.85938 24.0117 5.53906 23.9336 6.30469C23.918 6.44531 23.9609 6.58984 24.0625 6.73828C24.1641 6.87891 24.3633 6.94141 24.6602 6.92578C25.4648 6.88672 26.168 7.01953 26.7695 7.32422C27.3711 7.62891 27.8359 8.05859 28.1641 8.61328C28.5 9.16016 28.668 9.77734 28.668 10.4648C28.668 10.9961 28.5664 11.5117 28.3633 12.0117C28.1602 12.5039 27.75 13.0508 27.1328 13.6523C26.9453 13.8398 26.8438 14.082 26.8281 14.3789C26.8203 14.6758 26.9336 14.9297 27.168 15.1406C27.8945 15.8047 28.3906 16.3984 28.6562 16.9219C28.9297 17.4375 29.0664 17.9727 29.0664 18.5273C29.0664 19.3633 28.8086 20.0391 28.293 20.5547C27.7852 21.0703 27.1211 21.3281 26.3008 21.3281C25.793 21.3281 25.3242 21.2539 24.8945 21.1055C24.4727 20.9492 23.9883 20.6602 23.4414 20.2383C23.1992 20.5352 22.8789 20.8516 22.4805 21.1875C22.082 21.5156 21.5859 21.7969 20.9922 22.0312C20.4062 22.2656 19.7031 22.3828 18.8828 22.3828C18.4297 22.3828 17.9844 22.3359 17.5469 22.2422C17.1172 22.1484 16.5977 21.9766 15.9883 21.7266C15.3867 21.9766 14.8672 22.1484 14.4297 22.2422C14 22.3359 13.5586 22.3828 13.1055 22.3828ZM9.70703 18.7734C10.8008 18.7734 11.6758 18.5469 12.332 18.0938C12.9883 17.6328 13.457 17.0391 13.7383 16.3125C14.0508 16.5234 14.3945 16.6836 14.7695 16.793C15.1445 16.8945 15.5508 16.9453 15.9883 16.9453C16.4336 16.9453 16.8438 16.8945 17.2188 16.793C17.5938 16.6836 17.9414 16.5234 18.2617 16.3125C18.5352 17.0391 18.9961 17.6328 19.6445 18.0938C20.3008 18.5469 21.1797 18.7734 22.2812 18.7734C22.5 18.7734 22.6875 18.6992 22.8438 18.5508C23 18.3945 23.0781 18.207 23.0781 17.9883C23.0781 17.7695 23 17.582 22.8438 17.4258C22.6875 17.2695 22.5 17.1914 22.2812 17.1914C21.6328 17.1836 21.0977 17.0625 20.6758 16.8281C20.2617 16.5938 19.9531 16.2734 19.75 15.8672C19.5469 15.4531 19.4375 14.9648 19.4219 14.4023C19.4141 14.1914 19.332 14.0312 19.1758 13.9219C19.0273 13.8125 18.8555 13.7656 18.6602 13.7812C18.4648 13.7969 18.3047 13.8945 18.1797 14.0742C17.9297 14.4414 17.625 14.7266 17.2656 14.9297C16.9141 15.1328 16.4883 15.2344 15.9883 15.2344C15.4961 15.2344 15.0703 15.1328 14.7109 14.9297C14.3594 14.7266 14.0547 14.4414 13.7969 14.0742C13.6797 13.8945 13.5234 13.7969 13.3281 13.7812C13.1328 13.7656 12.957 13.8125 12.8008 13.9219C12.6523 14.0312 12.5742 14.1914 12.5664 14.4023C12.5508 14.9648 12.4414 15.4531 12.2383 15.8672C12.0352 16.2734 11.7227 16.5938 11.3008 16.8281C10.8867 17.0625 10.3555 17.1836 9.70703 17.1914C9.48828 17.1914 9.30078 17.2695 9.14453 17.4258C8.98828 17.582 8.91016 17.7695 8.91016 17.9883C8.91016 18.207 8.98828 18.3945 9.14453 18.5508C9.30078 18.6992 9.48828 18.7734 9.70703 18.7734ZM15.9883 31.0781C16.5742 31.0781 17.043 30.9844 17.3945 30.7969C17.7539 30.6094 17.9336 30.3672 17.9336 30.0703C17.9336 29.8203 17.9141 29.4375 17.875 28.9219C17.8438 28.4141 17.8086 27.8555 17.7695 27.2461C17.7383 26.6445 17.7227 26.0781 17.7227 25.5469C17.7227 25.0312 17.8164 24.4375 18.0039 23.7656C18.1914 23.0859 18.4297 22.3945 18.7188 21.6914C19.0078 20.9883 19.3047 20.3242 19.6094 19.6992C19.9141 19.0742 20.1836 18.5469 20.418 18.1172C20.6602 17.6797 20.8203 17.3984 20.8984 17.2734L19.2461 16.1719C19.0586 16.5234 18.8516 16.9023 18.625 17.3086C18.4062 17.707 18.1602 18.168 17.8867 18.6914C17.6211 19.2148 17.3281 19.8359 17.0078 20.5547V16.6055H14.9805V20.5664C14.6523 19.8477 14.3555 19.2266 14.0898 18.7031C13.8242 18.1719 13.5781 17.707 13.3516 17.3086C13.1328 16.9023 12.9297 16.5234 12.7422 16.1719L11.1016 17.2734C11.1797 17.3984 11.3359 17.6797 11.5703 18.1172C11.8047 18.5469 12.0742 19.0742 12.3789 19.6992C12.6836 20.3242 12.9766 20.9883 13.2578 21.6914C13.5469 22.3945 13.7852 23.0859 13.9727 23.7656C14.168 24.4375 14.2656 25.0312 14.2656 25.5469C14.2656 26.0781 14.2461 26.6445 14.207 27.2461C14.1758 27.8555 14.1406 28.4141 14.1016 28.9219C14.0703 29.4375 14.0547 29.8203 14.0547 30.0703C14.0547 30.3672 14.2305 30.6094 14.582 30.7969C14.9414 30.9844 15.4102 31.0781 15.9883 31.0781Z" fill="white"/>
</svg>
