<svg width="32" height="26" viewBox="0 0 32 26" fill="none" xmlns="http://www.w3.org/2000/svg">
<path d="M4.30469 21.0234H27.6953C28.7969 21.0234 29.6367 20.7344 30.2148 20.1562C30.8008 19.5703 31.0938 18.7266 31.0938 17.625V4.06641C31.0938 2.97266 30.8008 2.13672 30.2148 1.55859C29.6367 0.972656 28.7969 0.679688 27.6953 0.679688H4.30469C3.20312 0.679688 2.35938 0.972656 1.77344 1.55859C1.19531 2.13672 0.90625 2.97266 0.90625 4.06641V17.625C0.90625 18.7266 1.19531 19.5703 1.77344 20.1562C2.35938 20.7344 3.20312 21.0234 4.30469 21.0234ZM4.50391 18.5156C4.14453 18.5156 3.87109 18.4297 3.68359 18.2578C3.50391 18.0781 3.41406 17.8008 3.41406 17.4258V4.26562C3.41406 3.89844 3.50391 3.62891 3.68359 3.45703C3.87109 3.27734 4.14453 3.1875 4.50391 3.1875H27.4844C27.8516 3.1875 28.125 3.27734 28.3047 3.45703C28.4844 3.62891 28.5742 3.89844 28.5742 4.26562V17.4258C28.5742 17.8008 28.4844 18.0781 28.3047 18.2578C28.125 18.4297 27.8516 18.5156 27.4844 18.5156H4.50391ZM9.92969 25.2188H22.0703C22.3828 25.2188 22.6523 25.1055 22.8789 24.8789C23.1055 24.6523 23.2188 24.3828 23.2188 24.0703C23.2188 23.7656 23.1055 23.4961 22.8789 23.2617C22.6523 23.0352 22.3828 22.9219 22.0703 22.9219H9.92969C9.61719 22.9219 9.34766 23.0352 9.12109 23.2617C8.89453 23.4961 8.78125 23.7656 8.78125 24.0703C8.78125 24.3828 8.89453 24.6523 9.12109 24.8789C9.34766 25.1055 9.61719 25.2188 9.92969 25.2188Z" fill="white"/>
</svg>
